<?xml version="1.0" encoding="utf-8"?>
<!-- Generator: Adobe Illustrator 21.0.0, SVG Export Plug-In . SVG Version: 6.00 Build 0)  -->
<svg version="1.1" id="Layer_1" xmlns="http://www.w3.org/2000/svg" xmlns:xlink="http://www.w3.org/1999/xlink" x="0px" y="0px"
	 viewBox="0 0 278.7 441.2" style="enable-background:new 0 0 278.7 441.2;" xml:space="preserve">
<style type="text/css">
	.st0{fill:none;}
	.st1{fill:#E3AF10;}
	.st2{fill:#CE2C2B;}
	.st3{fill:#603811;}
</style>
<g>
	<g>
		<g>
			<g>
				<path class="st0" d="M154.1,345.9h-27.7c-1.2,0-2.2,1-2.2,2.2v41.8c0,1.2,1,2.2,2.2,2.2h27.7c1.2,0,2.2-1,2.2-2.2v-41.8
					C156.3,346.9,155.3,345.9,154.1,345.9z M151.8,387.7h-23.3v-37.4h23.3V387.7z"/>
			</g>
		</g>
		<g>
			<g>
				<path class="st0" d="M70.1,345.9H42.4c-1.2,0-2.2,1-2.2,2.2v41.8c0,1.2,1,2.2,2.2,2.2h27.7c1.2,0,2.2-1,2.2-2.2v-41.8
					C72.3,346.9,71.3,345.9,70.1,345.9z M67.9,387.7H44.6v-37.4h23.3V387.7z"/>
			</g>
		</g>
		<g>
			<g>
				<path class="st0" d="M126.3,183.2h27.7c1.2,0,2.2-1,2.2-2.2v-41.8c0-1.2-1-2.2-2.2-2.2h-27.7c-1.2,0-2.2,1-2.2,2.2v41.8
					C124.1,182.2,125.1,183.2,126.3,183.2z M128.6,141.4h23.3v37.4h-23.3V141.4z"/>
			</g>
		</g>
		<g>
			<g>
				<path class="st0" d="M238,53.4h-27.7c-1.2,0-2.2,1-2.2,2.2v41.8c0,1.2,1,2.2,2.2,2.2H238c1.2,0,2.2-1,2.2-2.2V55.6
					C240.3,54.3,239.3,53.4,238,53.4z M235.8,95.2h-23.3V57.8h23.3V95.2z"/>
			</g>
		</g>
		<g>
			<g>
				<path class="st0" d="M154.1,262.3h-27.7c-1.2,0-2.2,1-2.2,2.2v41.8c0,1.2,1,2.2,2.2,2.2h27.7c1.2,0,2.2-1,2.2-2.2v-41.8
					C156.3,263.3,155.3,262.3,154.1,262.3z M151.8,304.1h-23.3v-37.4h23.3V304.1z"/>
			</g>
		</g>
		<g>
			<g>
				<path class="st0" d="M240.3,139.2c0-1.2-1-2.2-2.2-2.2h-27.7c-1.2,0-2.2,1-2.2,2.2v81.4h-23.7V132c0-0.6-0.2-1.2-0.7-1.6
					l-12.5-12.2l12.5-12.2c0.4-0.4,0.7-1,0.7-1.6V15.3H180v88.3l-13.4,13.1c-0.4,0.4-0.7,1-0.7,1.6c0,0.6,0.2,1.2,0.7,1.6L180,133
					v87.5h-79.5v-39.6c0-1.2-1-2.2-2.2-2.2H58.4V57.8h39.8c1.2,0,2.2-1,2.2-2.2V15.3H96v38.1H56.2c-1.2,0-2.2,1-2.2,2.2v125.4
					c0,1.2,1,2.2,2.2,2.2H96v37.4H70.1c-1.2,0-2.2,1-2.2,2.2v81.4H44.6v-81.4c0-1.2-1-2.2-2.2-2.2H15.7v4.4h24.4v81.4
					c0,1.2,1,2.2,2.2,2.2h27.7c1.2,0,2.2-1,2.2-2.2v-81.4H96v88.5c0,0.6,0.2,1.2,0.7,1.6l12.5,12.2l-12.5,12.2
					c-0.4,0.4-0.7,1-0.7,1.6v89.2h4.4v-88.3l13.4-13.1c0.4-0.4,0.7-1,0.7-1.6s-0.2-1.2-0.7-1.6l-13.4-13.1v-87.5H180v39.6
					c0,1.2,1,2.2,2.2,2.2H222v120.9h-39.8c-1.2,0-2.2,1-2.2,2.2v40.3h4.4v-38.1h39.8c1.2,0,2.2-1,2.2-2.2V264.5c0-1.2-1-2.2-2.2-2.2
					h-39.8v-37.4h25.9c1.2,0,2.2-1,2.2-2.2v-81.4h23.3v81.4c0,1.2,1,2.2,2.2,2.2h26.7v-4.4h-24.4V139.2z"/>
			</g>
		</g>
		<g>
			<g>
				<path class="st0" d="M126.3,99.6h27.7c1.2,0,2.2-1,2.2-2.2V55.6c0-1.2-1-2.2-2.2-2.2h-27.7c-1.2,0-2.2,1-2.2,2.2v41.8
					C124.1,98.6,125.1,99.6,126.3,99.6z M128.6,57.8h23.3v37.4h-23.3V57.8z"/>
			</g>
		</g>
		<g>
			<g>
				<rect x="128.6" y="350.3" class="st1" width="23.3" height="37.4"/>
			</g>
		</g>
		<g>
			<g>
				<rect x="128.6" y="57.8" class="st1" width="23.3" height="37.4"/>
			</g>
		</g>
		<g>
			<g>
				<path class="st2" d="M96.7,339.4l12.5-12.2L96.7,315c-0.4-0.4-0.7-1-0.7-1.6v-88.5H72.3v81.4c0,1.2-1,2.2-2.2,2.2H42.4
					c-1.2,0-2.2-1-2.2-2.2v-81.4H15.7v200.9c0,2.4,2,4.4,4.4,4.4H96V341C96,340.4,96.2,339.8,96.7,339.4z M72.3,389.9
					c0,1.2-1,2.2-2.2,2.2H42.4c-1.2,0-2.2-1-2.2-2.2v-41.8c0-1.2,1-2.2,2.2-2.2h27.7c1.2,0,2.2,1,2.2,2.2V389.9z"/>
			</g>
		</g>
		<g>
			<g>
				<rect x="44.6" y="350.3" class="st1" width="23.3" height="37.4"/>
			</g>
		</g>
		<g>
			<g>
				<path class="st3" d="M98.2,57.8H58.4v120.9h39.8c1.2,0,2.2,1,2.2,2.2v39.6H180V133l-13.4-13.1c-0.4-0.4-0.7-1-0.7-1.6
					c0-0.6,0.2-1.2,0.7-1.6l13.4-13.1V15.3h-79.5v40.3C100.4,56.8,99.4,57.8,98.2,57.8z M124.1,55.6c0-1.2,1-2.2,2.2-2.2h27.7
					c1.2,0,2.2,1,2.2,2.2v41.8c0,1.2-1,2.2-2.2,2.2h-27.7c-1.2,0-2.2-1-2.2-2.2V55.6z M124.1,139.2c0-1.2,1-2.2,2.2-2.2h27.7
					c1.2,0,2.2,1,2.2,2.2v41.8c0,1.2-1,2.2-2.2,2.2h-27.7c-1.2,0-2.2-1-2.2-2.2V139.2z"/>
			</g>
		</g>
		<g>
			<g>
				<rect x="128.6" y="266.7" class="st1" width="23.3" height="37.4"/>
			</g>
		</g>
		<g>
			<g>
				<path class="st1" d="M235.8,222.7v-81.4h-23.3v81.4c0,1.2-1,2.2-2.2,2.2h-25.9v37.4h39.8c1.2,0,2.2,1,2.2,2.2v125.4
					c0,1.2-1,2.2-2.2,2.2h-39.8v38.1h75.9c2.4,0,4.4-2,4.4-4.4V224.9H238C236.8,224.9,235.8,224,235.8,222.7z"/>
			</g>
		</g>
		<g>
			<g>
				<path class="st1" d="M44.6,222.7v81.4h23.3v-81.4c0-1.2,1-2.2,2.2-2.2H96v-37.4H56.2c-1.2,0-2.2-1-2.2-2.2V55.6
					c0-1.2,1-2.2,2.2-2.2H96V15.3H20.1c-2.4,0-4.4,2-4.4,4.4v200.9h26.7C43.6,220.5,44.6,221.5,44.6,222.7z"/>
			</g>
		</g>
		<g>
			<g>
				<path class="st2" d="M260.3,15.3h-75.9v89.2c0,0.6-0.2,1.2-0.7,1.6l-12.5,12.2l12.5,12.2c0.4,0.4,0.7,1,0.7,1.6v88.5h23.7v-81.4
					c0-1.2,1-2.2,2.2-2.2H238c1.2,0,2.2,1,2.2,2.2v81.4h24.4V19.6C264.7,17.2,262.7,15.3,260.3,15.3z M240.3,97.4
					c0,1.2-1,2.2-2.2,2.2h-27.7c-1.2,0-2.2-1-2.2-2.2V55.6c0-1.2,1-2.2,2.2-2.2H238c1.2,0,2.2,1,2.2,2.2V97.4z"/>
			</g>
		</g>
		<g>
			<g>
				<rect x="128.6" y="141.4" class="st1" width="23.3" height="37.4"/>
			</g>
		</g>
		<g>
			<g>
				<path class="st3" d="M182.2,387.7H222V266.7h-39.8c-1.2,0-2.2-1-2.2-2.2v-39.6h-79.5v87.5l13.4,13.1c0.4,0.4,0.7,1,0.7,1.6
					s-0.2,1.2-0.7,1.6l-13.4,13.1v88.3H180v-40.3C180,388.7,181,387.7,182.2,387.7z M156.3,389.9c0,1.2-1,2.2-2.2,2.2h-27.7
					c-1.2,0-2.2-1-2.2-2.2v-41.8c0-1.2,1-2.2,2.2-2.2h27.7c1.2,0,2.2,1,2.2,2.2V389.9z M156.3,306.3c0,1.2-1,2.2-2.2,2.2h-27.7
					c-1.2,0-2.2-1-2.2-2.2v-41.8c0-1.2,1-2.2,2.2-2.2h27.7c1.2,0,2.2,1,2.2,2.2V306.3z"/>
			</g>
		</g>
		<g>
			<g>
				<rect x="212.5" y="57.8" class="st1" width="23.3" height="37.4"/>
			</g>
		</g>
	</g>
</g>
</svg>
