<svg width="98" height="29" viewBox="0 0 98 29" fill="none" xmlns="http://www.w3.org/2000/svg">
<path fill-rule="evenodd" clip-rule="evenodd" d="M40.4496 17.8829C40.6742 17.8829 40.8559 17.9698 40.9947 18.1434C41.1334 18.3171 41.2028 18.5509 41.2028 18.8447C41.2028 19.2588 40.9584 19.6062 40.4694 19.8867C40.0201 20.1405 39.5113 20.3442 38.9431 20.4978C38.3748 20.6514 37.833 20.7282 37.3177 20.7282C35.7583 20.7282 34.5227 20.2741 33.6109 19.3657C32.6991 18.4573 32.2432 17.215 32.2432 15.6388C32.2432 14.6369 32.4414 13.7486 32.8378 12.9738C33.2343 12.1991 33.7926 11.5979 34.5128 11.1705C35.233 10.743 36.049 10.5293 36.9609 10.5293C37.833 10.5293 38.5929 10.723 39.2404 11.1104C39.888 11.4978 40.3901 12.0454 40.7469 12.7534C41.1037 13.4614 41.2821 14.2963 41.2821 15.2581C41.2821 15.8325 41.031 16.1197 40.5289 16.1197H34.6813C34.7606 17.0414 35.0183 17.7193 35.4544 18.1535C35.8905 18.5876 36.5248 18.8047 37.3573 18.8047C37.7802 18.8047 38.1535 18.7512 38.4773 18.6444C38.801 18.5375 39.1677 18.3906 39.5774 18.2035C39.9738 17.9898 40.2646 17.8829 40.4496 17.8829ZM37.0203 12.2926C36.3464 12.2926 35.8079 12.5063 35.4048 12.9338C35.0018 13.3612 34.7606 13.9757 34.6813 14.7772H39.1611C39.1347 13.9623 38.9365 13.3445 38.5665 12.9237C38.1964 12.503 37.6811 12.2926 37.0203 12.2926ZM44.2852 20.6882C43.9284 20.6882 43.6344 20.5846 43.4031 20.3776C43.1718 20.1705 43.0562 19.8733 43.0562 19.4859V7.5237C43.0562 7.13631 43.1718 6.84244 43.4031 6.64206C43.6344 6.44169 43.9284 6.3415 44.2852 6.3415C44.642 6.3415 44.9393 6.44169 45.1772 6.64206C45.4151 6.84244 45.534 7.13631 45.534 7.5237V19.4859C45.534 19.8733 45.4151 20.1705 45.1772 20.3776C44.9393 20.5846 44.642 20.6882 44.2852 20.6882ZM52.0456 10.5293C53.3935 10.5293 54.3945 10.8666 55.0487 11.5412C55.7028 12.2158 56.0299 13.241 56.0299 14.6169V19.506C56.0299 19.8666 55.9242 20.1505 55.7127 20.3575C55.5013 20.5646 55.2106 20.6681 54.8405 20.6681C54.497 20.6681 54.2161 20.5613 53.9981 20.3475C53.7801 20.1338 53.671 19.8533 53.671 19.506V19.0651C53.4464 19.5861 53.0929 19.9935 52.6105 20.2874C52.1282 20.5813 51.5699 20.7282 50.9356 20.7282C50.288 20.7282 49.7 20.5947 49.1714 20.3275C48.6428 20.0603 48.2265 19.693 47.9226 19.2254C47.6186 18.7579 47.4667 18.2369 47.4667 17.6625C47.4667 16.9412 47.6484 16.3735 48.0118 15.9594C48.3752 15.5453 48.9665 15.2447 49.7859 15.0577C50.6052 14.8707 51.735 14.7772 53.1755 14.7772H53.671V14.3163C53.671 13.6618 53.5323 13.1842 53.2548 12.8837C52.9773 12.5831 52.528 12.4328 51.9069 12.4328C51.5236 12.4328 51.1338 12.4896 50.7373 12.6031C50.3409 12.7167 49.8718 12.8803 49.33 13.0941C48.9864 13.2677 48.7353 13.3545 48.5767 13.3545C48.3388 13.3545 48.1439 13.2677 47.992 13.0941C47.84 12.9204 47.764 12.6933 47.764 12.4128C47.764 12.1857 47.8202 11.9887 47.9325 11.8217C48.0448 11.6547 48.2331 11.4978 48.4974 11.3508C48.9599 11.097 49.5117 10.8966 50.1526 10.7497C50.7935 10.6028 51.4245 10.5293 52.0456 10.5293ZM51.4311 18.9249C52.0919 18.9249 52.6304 18.7011 53.0466 18.2536C53.4629 17.8061 53.671 17.2284 53.671 16.5204V16.0996H53.3142C52.4288 16.0996 51.7417 16.1397 51.2527 16.2199C50.7638 16.3 50.4136 16.4403 50.2021 16.6406C49.9907 16.841 49.885 17.1149 49.885 17.4622C49.885 17.8896 50.0336 18.2403 50.331 18.5141C50.6283 18.788 50.995 18.9249 51.4311 18.9249ZM61.8081 20.7282C60.3676 20.7282 59.2048 20.441 58.3194 19.8666C57.8965 19.6128 57.685 19.2522 57.685 18.7846C57.685 18.5175 57.7577 18.3004 57.9031 18.1334C58.0485 17.9664 58.2268 17.8829 58.4383 17.8829C58.6629 17.8829 58.9735 17.9898 59.3699 18.2035C59.7928 18.4039 60.1793 18.5575 60.5295 18.6644C60.8797 18.7713 61.3257 18.8247 61.8675 18.8247C62.4226 18.8247 62.8553 18.7312 63.1659 18.5442C63.4764 18.3572 63.6317 18.0967 63.6317 17.7627C63.6317 17.5356 63.5689 17.3553 63.4434 17.2217C63.3179 17.0881 63.0932 16.9646 62.7695 16.851C62.4457 16.7375 61.9534 16.6072 61.2927 16.4603C60.1166 16.2199 59.2741 15.8792 58.7654 15.4384C58.2566 14.9976 58.0022 14.3898 58.0022 13.615C58.0022 13.0273 58.174 12.4963 58.5176 12.0221C58.8612 11.5478 59.3336 11.1805 59.9349 10.92C60.5361 10.6595 61.22 10.5293 61.9865 10.5293C62.5415 10.5293 63.0767 10.5994 63.5921 10.7397C64.1075 10.8799 64.57 11.0836 64.9796 11.3508C65.4025 11.618 65.6139 11.972 65.6139 12.4128C65.6139 12.6799 65.5413 12.9037 65.3959 13.084C65.2505 13.2644 65.0721 13.3545 64.8607 13.3545C64.7153 13.3545 64.5733 13.3245 64.4345 13.2644C64.2958 13.2043 64.1207 13.1141 63.9092 12.9939C63.526 12.7935 63.1956 12.6432 62.9181 12.543C62.6406 12.4428 62.297 12.3927 61.8874 12.3927C61.3984 12.3927 61.0119 12.4929 60.7278 12.6933C60.4436 12.8937 60.3016 13.1675 60.3016 13.5148C60.3016 13.8488 60.4469 14.1026 60.7377 14.2762C61.0284 14.4499 61.59 14.6236 62.4226 14.7972C63.308 14.9842 64.0017 15.198 64.5039 15.4384C65.0061 15.6789 65.3662 15.9794 65.5842 16.3401C65.8023 16.7008 65.9113 17.1616 65.9113 17.7227C65.9113 18.631 65.538 19.359 64.7913 19.9067C64.0447 20.4544 63.0503 20.7282 61.8081 20.7282ZM72.6013 18.8247C73.262 18.8648 73.5924 19.1653 73.5924 19.7264C73.5924 20.047 73.4636 20.2908 73.2059 20.4577C72.9482 20.6247 72.5815 20.6948 72.1057 20.6681L71.5705 20.628C69.3504 20.4678 68.2404 19.2655 68.2404 17.0213V12.6532H67.2493C66.8925 12.6532 66.6183 12.5731 66.4267 12.4128C66.235 12.2525 66.1392 12.0187 66.1392 11.7115C66.1392 11.4042 66.235 11.1705 66.4267 11.0102C66.6183 10.8499 66.8925 10.7697 67.2493 10.7697H68.2404V8.92631C68.2404 8.56563 68.3527 8.27844 68.5774 8.06471C68.802 7.85097 69.106 7.74411 69.4892 7.74411C69.8592 7.74411 70.1565 7.85097 70.3812 8.06471C70.6059 8.27844 70.7182 8.56563 70.7182 8.92631V10.7697H72.4031C72.7599 10.7697 73.0341 10.8499 73.2257 11.0102C73.4173 11.1705 73.5131 11.4042 73.5131 11.7115C73.5131 12.0187 73.4173 12.2525 73.2257 12.4128C73.0341 12.5731 72.7599 12.6532 72.4031 12.6532H70.7182V17.2017C70.7182 18.1902 71.1675 18.7178 72.0661 18.7846L72.6013 18.8247ZM75.8621 20.6882C75.5053 20.6882 75.2112 20.5846 74.98 20.3776C74.7487 20.1705 74.6331 19.8733 74.6331 19.4859V11.7516C74.6331 11.3642 74.7487 11.0703 74.98 10.8699C75.2112 10.6695 75.5053 10.5694 75.8621 10.5694C76.2189 10.5694 76.5162 10.6695 76.7541 10.8699C76.9919 11.0703 77.1109 11.3642 77.1109 11.7516V19.4859C77.1109 19.8733 76.9919 20.1705 76.7541 20.3776C76.5162 20.5846 76.2189 20.6882 75.8621 20.6882ZM75.8621 8.78605C75.4128 8.78605 75.056 8.66248 74.7917 8.41536C74.5274 8.16823 74.3952 7.8443 74.3952 7.44355C74.3952 7.0428 74.5274 6.72221 74.7917 6.48176C75.056 6.24132 75.4128 6.12109 75.8621 6.12109C76.2981 6.12109 76.6516 6.24132 76.9225 6.48176C77.1935 6.72221 77.3289 7.0428 77.3289 7.44355C77.3289 7.8443 77.1968 8.16823 76.9325 8.41536C76.6682 8.66248 76.3114 8.78605 75.8621 8.78605ZM88.0428 18.6243C88.3071 18.8781 88.4393 19.1653 88.4393 19.4859C88.4393 19.7932 88.3303 20.067 88.1122 20.3075C87.8942 20.5479 87.6398 20.6681 87.3491 20.6681C87.0583 20.6681 86.7874 20.5479 86.5364 20.3075L81.8979 16.0596V19.4859C81.8979 19.8733 81.779 20.1672 81.5411 20.3676C81.3033 20.5679 81.0059 20.6681 80.6491 20.6681C80.2923 20.6681 79.9983 20.5679 79.767 20.3676C79.5358 20.1672 79.4202 19.8733 79.4202 19.4859V7.5237C79.4202 7.13631 79.5358 6.84244 79.767 6.64206C79.9983 6.44169 80.2923 6.3415 80.6491 6.3415C81.0059 6.3415 81.3033 6.44169 81.5411 6.64206C81.779 6.84244 81.8979 7.13631 81.8979 7.5237V15.0577L86.1399 10.9501C86.3778 10.7096 86.6487 10.5894 86.9526 10.5894C87.2566 10.5894 87.5208 10.7029 87.7455 10.93C87.9702 11.1571 88.0825 11.4243 88.0825 11.7315C88.0825 12.0388 87.9569 12.3193 87.7059 12.5731L84.5938 15.4985L88.0428 18.6243ZM93.9598 10.5293C95.3077 10.5293 96.3087 10.8666 96.9629 11.5412C97.617 12.2158 97.9441 13.241 97.9441 14.6169V19.506C97.9441 19.8666 97.8383 20.1505 97.6269 20.3575C97.4155 20.5646 97.1247 20.6681 96.7547 20.6681C96.4111 20.6681 96.1303 20.5613 95.9123 20.3475C95.6942 20.1338 95.5852 19.8533 95.5852 19.506V19.0651C95.3606 19.5861 95.0071 19.9935 94.5247 20.2874C94.0424 20.5813 93.4841 20.7282 92.8497 20.7282C92.2022 20.7282 91.6142 20.5947 91.0856 20.3275C90.557 20.0603 90.1407 19.693 89.8368 19.2254C89.5328 18.7579 89.3808 18.2369 89.3808 17.6625C89.3808 16.9412 89.5625 16.3735 89.926 15.9594C90.2894 15.5453 90.8807 15.2447 91.7 15.0577C92.5194 14.8707 93.6492 14.7772 95.0897 14.7772H95.5852V14.3163C95.5852 13.6618 95.4465 13.1842 95.1689 12.8837C94.8914 12.5831 94.4421 12.4328 93.821 12.4328C93.4378 12.4328 93.048 12.4896 92.6515 12.6031C92.2551 12.7167 91.7859 12.8803 91.2441 13.0941C90.9005 13.2677 90.6495 13.3545 90.4909 13.3545C90.253 13.3545 90.0581 13.2677 89.9061 13.0941C89.7542 12.9204 89.6782 12.6933 89.6782 12.4128C89.6782 12.1857 89.7343 11.9887 89.8467 11.8217C89.959 11.6547 90.1473 11.4978 90.4116 11.3508C90.8741 11.097 91.4258 10.8966 92.0668 10.7497C92.7077 10.6028 93.3387 10.5293 93.9598 10.5293ZM93.3453 18.9249C94.006 18.9249 94.5445 18.7011 94.9608 18.2536C95.3771 17.8061 95.5852 17.2284 95.5852 16.5204V16.0996H95.2284C94.343 16.0996 93.6558 16.1397 93.1669 16.2199C92.6779 16.3 92.3278 16.4403 92.1163 16.6406C91.9049 16.841 91.7992 17.1149 91.7992 17.4622C91.7992 17.8896 91.9478 18.2403 92.2452 18.5141C92.5425 18.788 92.9092 18.9249 93.3453 18.9249Z" fill="white"/>
<path d="M11.6639 12.3567C11.2297 14.6429 10.9226 16.0006 10.6739 16.767C10.6743 16.7677 10.6748 16.7684 10.6752 16.7692C10.5158 17.2648 10.3525 17.6667 10.1871 17.9729C10.1026 18.1293 10.0208 18.2545 9.94466 18.348C9.88896 18.4165 9.84389 18.4592 9.81277 18.4805C9.79201 18.4947 9.78967 18.4952 9.74607 18.4901C9.62208 18.4754 9.43548 18.3991 9.20883 18.2481C8.63237 17.864 8.00047 17.1319 7.50564 16.2503C6.99901 15.3477 6.69455 14.3951 6.6632 13.6305C6.63691 12.9892 6.78811 12.6116 7.08732 12.4049C7.13421 12.3725 7.1743 12.3498 7.20772 12.3351C7.22828 12.326 7.24284 12.3214 7.25299 12.3193C7.26042 12.3178 7.26465 12.318 7.28397 12.323C7.42531 12.3595 7.66161 12.5171 7.96754 12.8278C8.31792 13.1835 8.70968 13.6895 9.1712 14.3762C9.47663 14.8306 9.67676 15.1456 10.2136 16.0179C10.4535 15.323 10.7432 14.1732 11.207 11.717C10.872 11.2683 10.5506 10.8861 10.2252 10.5557C9.54882 9.869 8.85204 9.40409 8.07198 9.20278C7.11717 8.95639 6.15606 9.14786 5.28999 9.74608C3.99296 10.642 3.41173 12.0936 3.48021 13.7639C3.53425 15.0818 3.99354 16.5188 4.73485 17.8395C5.4626 19.136 6.42315 20.2489 7.45556 20.9368C8.07138 21.3471 8.71549 21.6106 9.37654 21.6886C10.1641 21.7816 10.9326 21.6028 11.5982 21.1474C12.0165 20.8613 12.3719 20.4823 12.682 20.0182C12.6882 20.0055 12.6949 19.9933 12.7021 19.9817C13.2759 19.0536 13.7347 17.8107 14.1272 16.2611C14.1266 16.2601 14.1259 16.2591 14.1253 16.2581C14.3354 15.3926 14.54 14.3636 14.8133 12.8783C14.8265 12.8063 14.8403 12.7315 14.8572 12.6393C15.2185 10.6706 15.359 9.95265 15.5732 9.06383C15.8396 7.95852 16.11 7.16466 16.3879 6.67366C16.4479 6.5678 16.5049 6.48225 16.557 6.41722C16.5597 6.41384 16.5624 6.41055 16.565 6.40734C16.5991 6.42405 16.638 6.4455 16.6816 6.47223C16.9248 6.62156 17.2296 6.88497 17.5847 7.26989C19.1022 8.91485 20.142 11.6324 20.3527 14.3615C20.5488 16.9019 19.974 18.8944 19.029 19.5257C18.163 20.1041 17.5477 20.0617 16.7323 19.4478C16.0682 18.948 15.3936 18.1533 14.5513 16.9054C14.1852 18.2911 13.7255 19.4066 13.1823 20.2852C13.1667 20.3105 13.1504 20.3368 13.1335 20.3642C13.692 21.0397 14.2477 21.5926 14.8295 22.0306C16.6828 23.4258 18.7548 23.5687 20.7854 22.2123C21.914 21.4583 22.6959 20.2292 23.1408 18.6867C23.529 17.341 23.6563 15.7637 23.5287 14.111C23.2653 10.6988 21.9624 7.29351 19.9146 5.07367C18.7644 3.8269 17.6676 3.15347 16.5005 3.14762C15.8365 3.14429 15.2211 3.36782 14.6962 3.77713C14.2728 4.10732 13.9236 4.54294 13.6228 5.07451C13.1648 5.88364 12.8091 6.92777 12.478 8.30166C12.2444 9.271 12.098 10.0189 11.7249 12.0519C11.7081 12.1436 11.6944 12.218 11.6813 12.2895C11.6768 12.314 11.6723 12.3383 11.6678 12.3625C11.6665 12.3606 11.6652 12.3586 11.6639 12.3567Z" fill="url(#paint0_linear)"/>
<defs>
<linearGradient id="paint0_linear" x1="20.69" y1="9.53912" x2="10.2199" y2="18.4233" gradientUnits="userSpaceOnUse">
<stop stop-color="#9052C8"/>
<stop offset="1" stop-color="#C86DD7"/>
</linearGradient>
</defs>
</svg>
