<svg width="312" height="90" viewBox="0 0 312 90" fill="none" xmlns="http://www.w3.org/2000/svg">
<path fill-rule="evenodd" clip-rule="evenodd" d="M127.357 56.2386C128.078 56.2386 128.661 56.5142 129.106 57.0653C129.551 57.6165 129.774 58.3585 129.774 59.2912C129.774 60.6055 128.989 61.7079 127.421 62.5982C125.979 63.4038 124.347 64.0503 122.524 64.5379C120.701 65.0255 118.962 65.2693 117.309 65.2693C112.306 65.2693 108.342 63.8278 105.416 60.9447C102.491 58.0617 101.028 54.1187 101.028 49.1158C101.028 45.9359 101.664 43.1165 102.936 40.6574C104.208 38.1984 105.999 36.2905 108.31 34.9338C110.621 33.577 113.239 32.8987 116.164 32.8987C118.962 32.8987 121.4 33.5134 123.478 34.743C125.555 35.9725 127.166 37.7108 128.311 39.9579C129.456 42.205 130.028 44.8548 130.028 47.9074C130.028 49.7305 129.222 50.6421 127.611 50.6421H108.85C109.105 53.5675 109.932 55.7192 111.331 57.0971C112.73 58.4751 114.765 59.164 117.436 59.164C118.793 59.164 119.99 58.9944 121.029 58.6552C122.068 58.3161 123.244 57.8497 124.559 57.2561C125.831 56.5778 126.763 56.2386 127.357 56.2386ZM116.355 38.4952C114.193 38.4952 112.465 39.1735 111.172 40.5303C109.879 41.887 109.105 43.8373 108.85 46.3811H123.223C123.138 43.7949 122.502 41.834 121.315 40.4985C120.128 39.1629 118.475 38.4952 116.355 38.4952ZM139.663 65.1421C138.518 65.1421 137.575 64.8135 136.833 64.1563C136.091 63.4992 135.72 62.5558 135.72 61.3263V23.3592C135.72 22.1297 136.091 21.1969 136.833 20.561C137.575 19.925 138.518 19.607 139.663 19.607C140.808 19.607 141.762 19.925 142.525 20.561C143.288 21.1969 143.669 22.1297 143.669 23.3592V61.3263C143.669 62.5558 143.288 63.4992 142.525 64.1563C141.762 64.8135 140.808 65.1421 139.663 65.1421ZM164.561 32.8987C168.885 32.8987 172.097 33.9692 174.196 36.1103C176.294 38.2514 177.344 41.5054 177.344 45.8724V61.3899C177.344 62.5346 177.005 63.4356 176.326 64.0927C175.648 64.7499 174.715 65.0785 173.528 65.0785C172.426 65.0785 171.525 64.7393 170.825 64.0609C170.126 63.3826 169.776 62.4922 169.776 61.3899V59.9908C169.055 61.6443 167.921 62.9374 166.373 63.8702C164.826 64.8029 163.035 65.2693 161 65.2693C158.922 65.2693 157.035 64.8453 155.339 63.9973C153.644 63.1494 152.308 61.9835 151.333 60.4995C150.358 59.0156 149.87 57.3621 149.87 55.539C149.87 53.2495 150.453 51.4477 151.619 50.1333C152.785 48.819 154.682 47.865 157.311 47.2715C159.94 46.6779 163.565 46.3811 168.186 46.3811H169.776V44.9184C169.776 42.8409 169.331 41.3252 168.44 40.3713C167.55 39.4173 166.108 38.9403 164.116 38.9403C162.886 38.9403 161.635 39.1205 160.364 39.4809C159.092 39.8413 157.587 40.3607 155.848 41.039C154.746 41.5902 153.94 41.8658 153.432 41.8658C152.668 41.8658 152.043 41.5902 151.555 41.039C151.068 40.4879 150.824 39.7671 150.824 38.8768C150.824 38.156 151.004 37.5306 151.365 37.0007C151.725 36.4707 152.329 35.9725 153.177 35.5061C154.661 34.7006 156.431 34.0646 158.487 33.5982C160.544 33.1319 162.568 32.8987 164.561 32.8987ZM162.589 59.5456C164.709 59.5456 166.437 58.8354 167.773 57.4151C169.108 55.9948 169.776 54.1611 169.776 51.914V50.5785H168.631C165.79 50.5785 163.586 50.7057 162.017 50.9601C160.448 51.2145 159.325 51.6596 158.646 52.2956C157.968 52.9316 157.629 53.8007 157.629 54.903C157.629 56.2598 158.106 57.3727 159.06 58.2419C160.014 59.111 161.19 59.5456 162.589 59.5456ZM195.882 65.2693C191.261 65.2693 187.53 64.3577 184.689 62.5346C183.332 61.7291 182.654 60.5843 182.654 59.1004C182.654 58.2525 182.887 57.5635 183.354 57.0335C183.82 56.5036 184.392 56.2386 185.071 56.2386C185.792 56.2386 186.788 56.5778 188.06 57.2561C189.417 57.8921 190.657 58.3797 191.78 58.7188C192.904 59.058 194.335 59.2276 196.073 59.2276C197.854 59.2276 199.242 58.9308 200.239 58.3373C201.235 57.7437 201.733 56.9169 201.733 55.857C201.733 55.1362 201.532 54.5639 201.129 54.1399C200.726 53.7159 200.005 53.3237 198.967 52.9634C197.928 52.603 196.349 52.1896 194.229 51.7232C190.455 50.9601 187.752 49.8789 186.12 48.4798C184.488 47.0807 183.672 45.1516 183.672 42.6925C183.672 40.827 184.223 39.1417 185.325 37.6366C186.427 36.1315 187.943 34.9656 189.872 34.1388C191.801 33.3121 193.995 32.8987 196.455 32.8987C198.235 32.8987 199.952 33.1213 201.606 33.5664C203.259 34.0116 204.743 34.6582 206.058 35.5061C207.414 36.3541 208.093 37.4776 208.093 38.8768C208.093 39.7247 207.859 40.4349 207.393 41.0072C206.927 41.5796 206.354 41.8658 205.676 41.8658C205.21 41.8658 204.754 41.7704 204.309 41.5796C203.863 41.3888 203.302 41.1026 202.623 40.721C201.394 40.0851 200.334 39.6081 199.444 39.2901C198.553 38.9721 197.451 38.8132 196.137 38.8132C194.568 38.8132 193.328 39.1311 192.416 39.7671C191.505 40.4031 191.049 41.2722 191.049 42.3746C191.049 43.4345 191.515 44.24 192.448 44.7912C193.381 45.3424 195.183 45.8936 197.854 46.4447C200.694 47.0383 202.92 47.7167 204.531 48.4798C206.142 49.243 207.298 50.1969 207.997 51.3417C208.697 52.4864 209.047 53.9491 209.047 55.7298C209.047 58.6129 207.849 60.9235 205.453 62.6618C203.058 64.4001 199.868 65.2693 195.882 65.2693ZM230.51 59.2276C232.63 59.3548 233.69 60.3087 233.69 62.0895C233.69 63.107 233.277 63.8807 232.45 64.4107C231.623 64.9407 230.447 65.1633 228.921 65.0785L227.203 64.9513C220.081 64.4425 216.519 60.6268 216.519 53.5039V39.6399H213.339C212.195 39.6399 211.315 39.3855 210.7 38.8768C210.085 38.368 209.778 37.626 209.778 36.6509C209.778 35.6757 210.085 34.9338 210.7 34.425C211.315 33.9162 212.195 33.6618 213.339 33.6618H216.519V27.811C216.519 26.6662 216.88 25.7547 217.6 25.0763C218.321 24.398 219.296 24.0588 220.526 24.0588C221.713 24.0588 222.667 24.398 223.388 25.0763C224.108 25.7547 224.469 26.6662 224.469 27.811V33.6618H229.874C231.019 33.6618 231.899 33.9162 232.514 34.425C233.128 34.9338 233.436 35.6757 233.436 36.6509C233.436 37.626 233.128 38.368 232.514 38.8768C231.899 39.3855 231.019 39.6399 229.874 39.6399H224.469V54.0763C224.469 57.2137 225.91 58.8884 228.793 59.1004L230.51 59.2276ZM240.972 65.1421C239.827 65.1421 238.884 64.8135 238.142 64.1563C237.4 63.4992 237.029 62.5558 237.029 61.3263V36.7781C237.029 35.5485 237.4 34.6158 238.142 33.9798C238.884 33.3439 239.827 33.0259 240.972 33.0259C242.117 33.0259 243.071 33.3439 243.834 33.9798C244.597 34.6158 244.979 35.5485 244.979 36.7781V61.3263C244.979 62.5558 244.597 63.4992 243.834 64.1563C243.071 64.8135 242.117 65.1421 240.972 65.1421ZM240.972 27.3658C239.531 27.3658 238.386 26.9736 237.538 26.1893C236.69 25.4049 236.266 24.3768 236.266 23.1048C236.266 21.8329 236.69 20.8154 237.538 20.0522C238.386 19.289 239.531 18.9075 240.972 18.9075C242.371 18.9075 243.505 19.289 244.374 20.0522C245.244 20.8154 245.678 21.8329 245.678 23.1048C245.678 24.3768 245.254 25.4049 244.406 26.1893C243.558 26.9736 242.414 27.3658 240.972 27.3658ZM280.052 58.5916C280.9 59.3972 281.324 60.3087 281.324 61.3263C281.324 62.3014 280.974 63.1706 280.275 63.9337C279.575 64.6969 278.759 65.0785 277.826 65.0785C276.893 65.0785 276.024 64.6969 275.219 63.9337L260.337 50.4513V61.3263C260.337 62.5558 259.956 63.4886 259.192 64.1245C258.429 64.7605 257.475 65.0785 256.331 65.0785C255.186 65.0785 254.242 64.7605 253.501 64.1245C252.759 63.4886 252.388 62.5558 252.388 61.3263V23.3592C252.388 22.1297 252.759 21.1969 253.501 20.561C254.242 19.925 255.186 19.607 256.331 19.607C257.475 19.607 258.429 19.925 259.192 20.561C259.956 21.1969 260.337 22.1297 260.337 23.3592V47.2715L273.947 34.2342C274.71 33.471 275.579 33.0895 276.554 33.0895C277.529 33.0895 278.377 33.4499 279.098 34.1706C279.819 34.8914 280.179 35.7393 280.179 36.7145C280.179 37.6896 279.776 38.58 278.971 39.3855L268.986 48.6706L280.052 58.5916ZM299.036 32.8987C303.36 32.8987 306.572 33.9692 308.67 36.1103C310.769 38.2514 311.818 41.5054 311.818 45.8724V61.3899C311.818 62.5346 311.479 63.4356 310.801 64.0927C310.123 64.7499 309.19 65.0785 308.003 65.0785C306.9 65.0785 305.999 64.7393 305.3 64.0609C304.6 63.3826 304.25 62.4922 304.25 61.3899V59.9908C303.53 61.6443 302.396 62.9374 300.848 63.8702C299.301 64.8029 297.509 65.2693 295.474 65.2693C293.397 65.2693 291.51 64.8453 289.814 63.9973C288.118 63.1494 286.783 61.9835 285.808 60.4995C284.832 59.0156 284.345 57.3621 284.345 55.539C284.345 53.2495 284.928 51.4477 286.094 50.1333C287.26 48.819 289.157 47.865 291.786 47.2715C294.414 46.6779 298.039 46.3811 302.661 46.3811H304.25V44.9184C304.25 42.8409 303.805 41.3252 302.915 40.3713C302.025 39.4173 300.583 38.9403 298.59 38.9403C297.361 38.9403 296.11 39.1205 294.838 39.4809C293.566 39.8413 292.061 40.3607 290.323 41.039C289.221 41.5902 288.415 41.8658 287.906 41.8658C287.143 41.8658 286.518 41.5902 286.03 41.039C285.543 40.4879 285.299 39.7671 285.299 38.8768C285.299 38.156 285.479 37.5306 285.839 37.0007C286.2 36.4707 286.804 35.9725 287.652 35.5061C289.136 34.7006 290.906 34.0646 292.962 33.5982C295.018 33.1319 297.043 32.8987 299.036 32.8987ZM297.064 59.5456C299.184 59.5456 300.912 58.8354 302.247 57.4151C303.583 55.9948 304.25 54.1611 304.25 51.914V50.5785H303.106C300.265 50.5785 298.06 50.7057 296.492 50.9601C294.923 51.2145 293.799 51.6596 293.121 52.2956C292.443 52.9316 292.104 53.8007 292.104 54.903C292.104 56.2598 292.581 57.3727 293.534 58.2419C294.488 59.111 295.665 59.5456 297.064 59.5456Z" fill="#333333"/>
<path d="M35.0013 38.6989C33.6083 45.955 32.6232 50.2642 31.8251 52.6966C31.8266 52.699 31.8281 52.7014 31.8295 52.7037C31.3179 54.2768 30.7941 55.5525 30.2633 56.5243C29.9922 57.0206 29.7297 57.418 29.4856 57.7148C29.3069 57.9321 29.1623 58.0676 29.0624 58.1352C28.9958 58.1803 28.9883 58.182 28.8484 58.1656C28.4506 58.1192 27.852 57.877 27.1248 57.3976C25.2753 56.1785 23.248 53.8548 21.6604 51.0568C20.0349 48.192 19.0581 45.1686 18.9576 42.7419C18.8732 40.7064 19.3583 39.5078 20.3183 38.8518C20.4687 38.749 20.5973 38.6771 20.7046 38.6303C20.7705 38.6014 20.8172 38.5867 20.8498 38.5803C20.8736 38.5756 20.8872 38.576 20.9492 38.5918C21.4027 38.7076 22.1608 39.208 23.1423 40.1939C24.2665 41.3231 25.5233 42.9289 27.0041 45.1085C27.984 46.5509 28.6261 47.5505 30.3485 50.3191C31.118 48.1136 32.0475 44.4643 33.5357 36.6685C32.4608 35.2444 31.4295 34.0313 30.3856 32.9828C28.2156 30.8031 25.9801 29.3275 23.4774 28.6886C20.4141 27.9066 17.3305 28.5143 14.5518 30.413C10.3905 33.2565 8.52575 37.8639 8.74547 43.1652C8.91884 47.348 10.3924 51.9089 12.7708 56.1007C15.1056 60.2158 18.1874 63.748 21.4997 65.9314C23.4755 67.2337 25.542 68.0698 27.6629 68.3175C30.1896 68.6126 32.6553 68.045 34.7907 66.5999C36.1326 65.6918 37.2729 64.4887 38.2679 63.016C38.2878 62.9755 38.3093 62.9368 38.3322 62.9001C40.1733 59.9543 41.6453 56.0093 42.9046 51.0912C42.9025 51.088 42.9004 51.0848 42.8984 51.0816C43.5725 48.3346 44.229 45.0685 45.1057 40.3544C45.1482 40.1259 45.1923 39.8884 45.2466 39.5959C46.4058 33.3474 46.8566 31.0686 47.5438 28.2476C48.3984 24.7394 49.2662 22.2198 50.1578 20.6614C50.35 20.3254 50.5329 20.0539 50.7001 19.8475C50.7088 19.8367 50.7174 19.8263 50.7258 19.8161C50.8353 19.8691 50.9602 19.9372 51.0998 20.0221C51.8802 20.496 52.8581 21.3321 53.9974 22.5538C58.866 27.7747 62.2019 36.4002 62.8779 45.062C63.5072 53.1249 61.6631 59.4489 58.6312 61.4525C55.8529 63.2885 53.8786 63.1538 51.2625 61.2055C49.1321 59.6189 46.9675 57.0969 44.2653 53.1361C43.0905 57.5342 41.6159 61.0746 39.8731 63.8631C39.8229 63.9435 39.7707 64.0271 39.7166 64.114C41.5082 66.2579 43.2913 68.013 45.1576 69.4029C51.1038 73.8312 57.7516 74.2848 64.2663 69.9796C67.8873 67.5867 70.3957 63.6856 71.8233 58.7897C73.0688 54.5186 73.4772 49.5123 73.0678 44.2668C72.2226 33.4367 68.0425 22.6287 61.4724 15.5832C57.7823 11.626 54.2635 9.4886 50.5189 9.47004C48.3884 9.45947 46.4141 10.1689 44.7301 11.4681C43.3717 12.516 42.2515 13.8987 41.2862 15.5858C39.817 18.1539 38.6756 21.4679 37.6134 25.8285C36.8639 28.9051 36.3943 31.2789 35.1972 37.7314C35.1432 38.0226 35.0994 38.2587 35.0572 38.4856C35.0427 38.5632 35.0283 38.6404 35.014 38.7172C35.0098 38.7111 35.0056 38.705 35.0013 38.6989Z" fill="url(#paint0_linear)"/>
<defs>
<linearGradient id="paint0_linear" x1="63.9602" y1="29.7561" x2="30.6724" y2="58.3081" gradientUnits="userSpaceOnUse">
<stop stop-color="#9052C8"/>
<stop offset="1" stop-color="#C86DD7"/>
</linearGradient>
</defs>
</svg>
