<svg width="945" height="614" viewBox="0 0 945 614" fill="none" xmlns="http://www.w3.org/2000/svg">
<path d="M385.161 282.624C385.37 281.882 385.581 281.136 385.792 280.386C386.411 278.193 387.053 275.912 387.845 273.098C405.386 210.746 412.266 187.807 423.248 158.077C438.813 115.94 455.537 83.9158 477.065 59.0997C491.209 42.7961 507.623 29.4355 527.528 19.3086C552.203 6.7549 581.132 -0.100934 612.35 0.00112323C667.218 0.180499 718.779 20.835 772.849 59.0737C869.119 127.157 930.368 231.597 942.752 336.251C948.751 386.939 942.767 435.317 924.517 476.589C903.598 523.899 866.844 561.596 813.786 584.72C718.328 626.323 620.92 621.939 533.792 579.147C500.719 562.903 469.429 541.5 437.546 514.528C437.217 514.25 436.888 513.971 436.56 513.693C421.117 529.635 403.245 542.531 381.889 552.062C350.599 566.026 314.469 571.51 277.446 568.659C246.369 566.265 216.089 558.186 187.139 545.601C138.604 524.503 93.4479 490.37 59.2356 450.604C24.3859 410.098 2.79428 366.025 0.254066 325.606C-2.96546 274.378 24.3589 229.856 85.3331 202.378C126.048 184.03 171.231 178.158 216.117 185.715C252.789 191.889 285.545 206.148 317.341 227.21C339.501 241.889 361.271 259.903 385.161 282.624Z" fill="#2D83D2"/>
<path d="M385.161 282.624C385.37 281.882 385.581 281.136 385.792 280.386C386.411 278.193 387.053 275.912 387.845 273.098C405.386 210.746 412.266 187.807 423.248 158.077C438.813 115.94 455.537 83.9158 477.065 59.0997C491.209 42.7961 507.623 29.4355 527.528 19.3086C552.203 6.7549 581.132 -0.100934 612.35 0.00112323C667.218 0.180499 718.779 20.835 772.849 59.0737C869.119 127.157 930.368 231.597 942.752 336.251C948.751 386.939 942.767 435.317 924.517 476.589C903.598 523.899 866.844 561.596 813.786 584.72C718.328 626.323 620.92 621.939 533.792 579.147C500.719 562.903 469.429 541.5 437.546 514.528C437.217 514.25 436.888 513.971 436.56 513.693C421.117 529.635 403.245 542.531 381.889 552.062C350.599 566.026 314.469 571.51 277.446 568.659C246.369 566.265 216.089 558.186 187.139 545.601C138.604 524.503 93.4479 490.37 59.2356 450.604C24.3859 410.098 2.79428 366.025 0.254066 325.606C-2.96546 274.378 24.3589 229.856 85.3331 202.378C126.048 184.03 171.231 178.158 216.117 185.715C252.789 191.889 285.545 206.148 317.341 227.21C339.501 241.889 361.271 259.903 385.161 282.624Z" fill="white" fill-opacity="0.9"/>
</svg>
