<svg width="620" height="432" viewBox="0 0 620 432" fill="none" xmlns="http://www.w3.org/2000/svg">
<path d="M252.698 185.133V185.133C252.835 184.647 252.974 184.159 253.112 183.667C253.518 182.231 253.94 180.737 254.459 178.894C265.967 138.049 270.482 123.023 277.686 103.549C287.898 75.9465 298.871 54.9692 312.995 38.7134C322.275 28.0337 333.044 19.2818 346.103 12.6482C362.292 4.42481 381.272 -0.0661174 401.753 0.000735773C437.751 0.118236 471.58 13.648 507.054 38.6964C570.216 83.2945 610.4 151.708 618.525 220.262C622.461 253.465 618.535 285.155 606.562 312.191C592.837 343.181 568.723 367.875 533.913 383.022C471.284 410.274 407.376 407.403 350.213 379.372C328.514 368.731 307.985 354.711 287.067 337.043C286.851 336.861 286.636 336.678 286.42 336.496C276.288 346.939 264.563 355.386 250.551 361.629C230.022 370.777 206.318 374.369 182.028 372.501C161.639 370.933 141.772 365.641 122.779 357.397C90.936 343.577 61.3097 321.218 38.8636 295.169C15.9992 268.636 1.83329 239.765 0.166689 213.289C-1.94559 179.732 15.9815 150.567 55.9857 132.568C82.698 120.55 112.342 116.703 141.791 121.653C165.851 125.697 187.342 135.038 208.203 148.835C222.741 158.45 237.025 170.25 252.698 185.133Z" fill="#2D83D2"/>
<path d="M252.698 185.133V185.133C252.835 184.647 252.974 184.159 253.112 183.667C253.518 182.231 253.94 180.737 254.459 178.894C265.967 138.049 270.482 123.023 277.686 103.549C287.898 75.9465 298.871 54.9692 312.995 38.7134C322.275 28.0337 333.044 19.2818 346.103 12.6482C362.292 4.42481 381.272 -0.0661174 401.753 0.000735773C437.751 0.118236 471.58 13.648 507.054 38.6964C570.216 83.2945 610.4 151.708 618.525 220.262C622.461 253.465 618.535 285.155 606.562 312.191C592.837 343.181 568.723 367.875 533.913 383.022C471.284 410.274 407.376 407.403 350.213 379.372C328.514 368.731 307.985 354.711 287.067 337.043C286.851 336.861 286.636 336.678 286.42 336.496C276.288 346.939 264.563 355.386 250.551 361.629C230.022 370.777 206.318 374.369 182.028 372.501C161.639 370.933 141.772 365.641 122.779 357.397C90.936 343.577 61.3097 321.218 38.8636 295.169C15.9992 268.636 1.83329 239.765 0.166689 213.289C-1.94559 179.732 15.9815 150.567 55.9857 132.568C82.698 120.55 112.342 116.703 141.791 121.653C165.851 125.697 187.342 135.038 208.203 148.835C222.741 158.45 237.025 170.25 252.698 185.133Z" fill="white" fill-opacity="0.9"/>
<path fill-rule="evenodd" clip-rule="evenodd" d="M223.753 216.753C220.029 215.561 217.162 214.546 216.366 214.186C204.523 208.838 191.183 197.25 185.565 185.535C180.864 175.73 177.689 152.297 164.79 151.142C158.762 150.603 152.451 154.217 150.106 160.2C147.899 165.833 149.423 172.259 151.709 177.859C154.548 184.811 158.498 191.223 162.429 197.599C168.193 206.949 174.287 216.635 183.547 222.357C192.021 227.593 202.195 228.907 212.031 230.107C216.319 230.632 220.607 231.154 224.895 231.678L223.753 216.753Z" fill="url(#paint0_linear)"/>
<path fill-rule="evenodd" clip-rule="evenodd" d="M458.26 164.679C455.81 158.779 449.215 155.215 442.916 155.748C429.436 156.886 426.119 179.995 421.205 189.664C415.775 200.353 403.439 210.922 391.824 216.622L390.416 233.982C391.46 233.861 392.505 233.741 393.55 233.62C403.827 232.437 414.46 231.14 423.315 225.977C432.991 220.334 439.358 210.781 445.383 201.561C449.491 195.274 453.619 188.95 456.585 182.094C458.974 176.572 460.566 170.234 458.26 164.679Z" fill="#2D83D2"/>
<path fill-rule="evenodd" clip-rule="evenodd" d="M458.26 164.679C455.81 158.779 449.215 155.215 442.916 155.748C429.436 156.886 426.119 179.995 421.205 189.664C415.775 200.353 403.439 210.922 391.824 216.622L390.416 233.982C391.46 233.861 392.505 233.741 393.55 233.62C403.827 232.437 414.46 231.14 423.315 225.977C432.991 220.334 439.358 210.781 445.383 201.561C449.491 195.274 453.619 188.95 456.585 182.094C458.974 176.572 460.566 170.234 458.26 164.679Z" fill="black" fill-opacity="0.2"/>
<path fill-rule="evenodd" clip-rule="evenodd" d="M370.264 161.273L370.267 161.204C370.267 140.358 353.885 123.458 333.679 123.458C319.951 123.458 308.005 131.268 301.746 142.807C296.154 138.786 289.37 136.409 282.035 136.409C265.493 136.409 251.684 148.418 248.315 164.443C246.499 164.133 244.647 163.933 242.747 163.933C224.001 163.933 208.805 179.61 208.805 198.951C208.805 218.292 224.001 233.97 242.747 233.97C249.427 233.97 255.636 231.949 260.888 228.514C265.582 234.64 272.834 238.585 280.99 238.585C288.496 238.585 295.229 235.234 299.916 229.928C305.294 235.278 312.596 238.585 320.657 238.585C331.06 238.585 340.214 233.096 345.571 224.778C351.797 230.481 359.965 233.97 368.942 233.97C388.421 233.97 404.21 217.679 404.21 197.587C404.21 177.952 389.122 161.995 370.264 161.273Z" fill="#2D83D2"/>
<path fill-rule="evenodd" clip-rule="evenodd" d="M370.264 161.273L370.267 161.204C370.267 140.358 353.885 123.458 333.679 123.458C319.951 123.458 308.005 131.268 301.746 142.807C296.154 138.786 289.37 136.409 282.035 136.409C265.493 136.409 251.684 148.418 248.315 164.443C246.499 164.133 244.647 163.933 242.747 163.933C224.001 163.933 208.805 179.61 208.805 198.951C208.805 218.292 224.001 233.97 242.747 233.97C249.427 233.97 255.636 231.949 260.888 228.514C265.582 234.64 272.834 238.585 280.99 238.585C288.496 238.585 295.229 235.234 299.916 229.928C305.294 235.278 312.596 238.585 320.657 238.585C331.06 238.585 340.214 233.096 345.571 224.778C351.797 230.481 359.965 233.97 368.942 233.97C388.421 233.97 404.21 217.679 404.21 197.587C404.21 177.952 389.122 161.995 370.264 161.273Z" fill="white" fill-opacity="0.7"/>
<path fill-rule="evenodd" clip-rule="evenodd" d="M179.882 422.224C182.338 425.31 188.45 425.248 192.179 426.154C194.073 426.615 197.646 427.252 197.284 429.605C197.089 430.877 196.014 431.359 194.736 431.676C192.025 432.351 189.141 431.761 186.388 431.766C181.785 431.774 177.182 431.783 172.578 431.791C170.871 431.794 169.043 431.533 167.988 430.326C166.55 428.666 168.166 424.086 169.456 422.648C171.951 419.867 176.484 419.937 179.533 421.91C179.684 422.008 179.791 422.112 179.882 422.224Z" fill="#1B2442"/>
<path fill-rule="evenodd" clip-rule="evenodd" d="M184.595 422.885C183.535 423.383 182.487 423.889 181.451 424.403C180.765 424.744 181.752 425.328 182.432 424.99C183.469 424.474 184.517 423.968 185.576 423.471C186.277 423.141 185.289 422.559 184.595 422.885Z" fill="#2A3665"/>
<path fill-rule="evenodd" clip-rule="evenodd" d="M184.992 422.929C184.504 423.413 184.049 423.921 183.613 424.447C183.232 424.907 184.077 425.357 184.453 424.903C184.837 424.438 185.25 423.994 185.681 423.567C186.108 423.142 185.421 422.504 184.992 422.929Z" fill="#2A3665"/>
<path fill-rule="evenodd" clip-rule="evenodd" d="M183.516 410.502C182.851 413.894 181.441 420.048 180.775 423.439C178.349 425.507 175.079 425.605 172.021 423.891C172.786 417.864 173.346 412.405 174.103 408.973C177.133 409.673 180.437 410.158 183.516 410.502Z" fill="#F0AB86"/>
<path fill-rule="evenodd" clip-rule="evenodd" d="M115.741 416.853C116.539 423.112 122.041 424.254 126.724 425.246C128.359 425.593 133.148 426.157 132.934 428.914C132.681 432.203 124.522 431.641 122.451 431.858C121.568 431.95 120.68 432.033 119.794 431.987C114.265 431.702 108.931 426.447 104.159 423.694C102.62 422.806 101.109 421.56 100.79 419.663C100.36 417.064 104.211 412.806 106.125 411.878C109.828 410.083 113.875 412.53 115.59 416.32C115.676 416.508 115.72 416.679 115.741 416.853Z" fill="#1B2442"/>
<path fill-rule="evenodd" clip-rule="evenodd" d="M120.799 422.845C120.281 423.118 119.804 423.445 119.361 423.873C118.835 424.38 119.39 425.47 119.92 424.958C120.29 424.602 120.681 424.295 121.114 424.066C121.729 423.741 121.42 422.516 120.799 422.845Z" fill="#2A3665"/>
<path fill-rule="evenodd" clip-rule="evenodd" d="M123.746 410.469C121.706 413.091 117.815 417.747 115.773 420.369C112.697 420.945 109.695 419.375 107.654 416.333C110.904 411.46 113.731 406.981 115.874 404.369C118.318 406.513 121.106 408.61 123.746 410.469Z" fill="#F0AB86"/>
<path fill-rule="evenodd" clip-rule="evenodd" d="M233.157 232.066C234.557 231.775 236.237 232.306 237.641 232.172C240.713 231.879 246.546 227.394 249.231 230.42C249.577 230.811 249.866 231.35 249.8 231.911C249.657 233.132 245.016 234.696 243.961 235.345C244.789 234.835 248.217 236.864 249.075 237.114C251.233 237.745 253.528 238.002 255.655 237.074C256.243 236.817 256.825 236.472 257.452 236.462C259.605 236.43 259.864 239.435 258.678 240.877C257.431 242.395 254.993 242.738 253.321 243.026C251.739 243.3 250.131 243.178 248.535 243.054C243.822 242.689 234.581 243.249 230.724 239.487C228.216 237.041 229.891 233.306 232.643 232.217C232.809 232.151 232.981 232.102 233.157 232.066Z" fill="#F0AB86"/>
<path fill-rule="evenodd" clip-rule="evenodd" d="M178.92 270.822C176.371 319.507 157.629 379.145 121.8 411.223C115.355 411.695 110.521 409.003 107.654 406.358C114.737 394.254 125.614 375.522 127.628 369.454C130.928 359.51 130.773 348.63 130.26 337.973C129.336 318.776 124.473 289.935 121.439 270.822C139.06 270.822 163.214 270.822 178.92 270.822Z" fill="#143752"/>
<path fill-rule="evenodd" clip-rule="evenodd" d="M184.464 411.277C180.781 411.272 175.631 411.265 171.221 409.512C172.123 384.552 173.502 356.368 160.478 335.028C153.716 323.95 143.8 315.202 135.292 305.391C126.782 295.582 117.784 282.943 119.323 268.528C134.558 268.358 147.575 270.85 157.524 270.863C178.43 286.484 182.558 306.594 188.658 331.911C194.756 357.229 194.457 387.221 184.464 411.277Z" fill="#143752"/>
<path fill-rule="evenodd" clip-rule="evenodd" d="M153.002 134.934C141.228 141.027 132.49 160.768 129.855 172.178C122.595 203.617 118.994 235.968 119.155 268.299C138.378 278.323 160.741 276.741 181.219 269.914C169.672 217.121 190.118 150.697 174.902 138.077C166.68 131.257 159.237 131.705 153.002 134.934Z" fill="url(#paint1_linear)"/>
<path fill-rule="evenodd" clip-rule="evenodd" d="M170.217 99.8358C179.626 100.583 192.521 97.8972 197.537 88.8707C199.779 84.8357 200.826 77.6635 197.402 74.015C194.193 70.5952 188.209 70.3285 183.878 70.5634C177.85 70.8924 171.47 71.7437 165.74 73.7459C163.744 74.4418 161.9 75.1647 160.302 76.5835C159.52 77.277 158.511 79.6473 157.29 79.629C155.432 79.4382 153.786 78.2285 151.926 78.0585C149.393 77.8261 147.01 79.6412 145.834 81.9199C144.659 84.1985 144.464 86.8526 144.439 89.4211C144.332 100.32 146.059 114.425 157.93 118.543C161.168 119.667 164.359 117.563 166.687 115.025C170.393 110.982 171.171 105.261 170.217 99.8358Z" fill="#1B2442"/>
<path fill-rule="evenodd" clip-rule="evenodd" d="M173.215 136.232L175.09 125.128L194.155 124.588L192.818 109.556L197.31 108.41L193.091 88.9199C184.405 96.2962 171.501 92.3314 171.501 92.3314L168.358 102.261C166.488 98.9209 163.354 93.6252 159.634 97.8015C155.914 101.979 161.671 109.193 161.671 109.193L153.631 134.009C153.631 134.009 164.408 144.886 173.215 136.232Z" fill="#F0AB86"/>
<path fill-rule="evenodd" clip-rule="evenodd" d="M154.17 158.051C147.808 157.498 141.146 161.212 138.671 167.361C136.342 173.149 137.951 179.755 140.363 185.511C143.359 192.656 147.529 199.247 151.678 205.799C157.763 215.409 164.195 225.366 173.968 231.244C182.912 236.627 193.651 237.979 204.033 239.211C215.197 240.537 226.362 241.865 237.527 243.191C237.738 239.403 238.137 235.935 238.689 230.98C229.903 230.024 210.928 223.869 208.608 222.849C196.108 217.351 182.029 205.441 176.098 193.401C171.136 183.323 167.786 159.239 154.17 158.051Z" fill="url(#paint2_linear)"/>
<path fill-rule="evenodd" clip-rule="evenodd" d="M360.531 238.586C360.596 239.351 360.653 240.113 360.699 240.888C367.539 240.12 374.379 239.353 381.221 238.586H360.531Z" fill="#227873"/>
<path fill-rule="evenodd" clip-rule="evenodd" d="M402.694 415.886C398.78 417.597 393.746 413.729 390.1 412.358C388.249 411.662 384.898 410.108 383.767 412.804C383.156 414.261 383.754 415.437 384.62 416.565C386.459 418.962 389.212 420.137 391.491 421.856C395.306 424.73 399.12 427.605 402.934 430.479C404.348 431.543 406.024 432.409 407.633 431.797C409.836 430.951 411.282 425.134 411.086 422.82C410.708 418.347 406.904 415.599 403.176 415.774C402.989 415.783 402.838 415.823 402.694 415.886Z" fill="#1B2442"/>
<path fill-rule="evenodd" clip-rule="evenodd" d="M408.668 406.671C407.451 409.535 405.427 414.846 404.211 417.712C405.297 420.555 408.203 422.397 411.889 422.789C414.429 417.922 416.848 413.586 418.004 410.64C414.886 409.516 411.637 408.083 408.668 406.671Z" fill="#F0AB86"/>
<path fill-rule="evenodd" clip-rule="evenodd" d="M480.074 266.331C478.014 276.141 478.581 282.988 475.796 292.573C463.495 334.929 437.835 380.132 417.117 418.183C412.152 418.01 408.637 416.97 404.211 413.402C415.277 365.335 427.017 311.846 438.648 263.944C451.519 264.172 467.558 262.969 480.074 266.331Z" fill="#1B2441"/>
<path fill-rule="evenodd" clip-rule="evenodd" d="M479.108 422.224C476.651 425.31 470.54 425.248 466.81 426.154C464.916 426.615 461.345 427.253 461.706 429.605C461.902 430.877 462.976 431.36 464.252 431.676C466.965 432.351 469.848 431.761 472.6 431.766C477.204 431.774 481.807 431.783 486.412 431.791C488.118 431.794 489.946 431.533 491.002 430.326C492.441 428.666 490.825 424.086 489.533 422.648C487.039 419.867 482.506 419.937 479.457 421.91C479.306 422.008 479.197 422.112 479.108 422.224Z" fill="#1B2442"/>
<path fill-rule="evenodd" clip-rule="evenodd" d="M475.476 410.284C476.141 413.191 477.551 418.466 478.216 421.372C480.645 423.145 483.912 423.229 486.97 421.76C486.206 416.594 485.644 411.915 484.888 408.973C481.859 409.573 478.555 409.989 475.476 410.284Z" fill="#F0AB86"/>
<path fill-rule="evenodd" clip-rule="evenodd" d="M481.341 268.52C482.221 315.888 485.768 368.394 491.567 415.406C486.488 417.975 481.062 418.882 474.893 417.623C462.261 372.499 447.847 322.244 447.889 275.343C458.414 273.733 470.817 270.129 481.341 268.52Z" fill="#17374F"/>
<path fill-rule="evenodd" clip-rule="evenodd" d="M370.659 232.066C369.26 231.775 367.578 232.306 366.176 232.172C363.105 231.879 357.271 227.394 354.587 230.42C354.24 230.811 353.952 231.35 354.017 231.911C354.16 233.132 358.801 234.696 359.856 235.345C359.029 234.835 355.6 236.864 354.741 237.114C352.584 237.745 350.29 238.002 348.162 237.074C347.575 236.817 346.992 236.472 346.365 236.462C344.212 236.43 343.954 239.435 345.139 240.877C346.386 242.395 348.824 242.738 350.497 243.026C352.078 243.3 353.686 243.178 355.281 243.054C359.996 242.689 369.236 243.249 373.094 239.487C375.602 237.041 373.925 233.306 371.174 232.217C371.007 232.151 370.835 232.102 370.659 232.066Z" fill="#F0AB86"/>
<path fill-rule="evenodd" clip-rule="evenodd" d="M454.161 134.934C466.371 141.027 475.433 160.768 478.165 172.178C485.694 203.617 489.428 235.968 489.263 268.299C469.328 278.323 446.135 276.741 424.899 269.914C436.875 217.121 415.671 150.697 431.451 138.077C439.977 131.257 447.697 131.705 454.161 134.934Z" fill="#2D83D2"/>
<path fill-rule="evenodd" clip-rule="evenodd" d="M434.579 100.023C434.467 100.68 395.706 96.4412 405.928 76.7291C408.098 72.5438 412.87 69.991 417.409 70.5856C422.505 71.2541 426.481 75.2965 430.953 77.9269C439.615 83.0181 459.233 74.1593 459.38 89.7114C459.482 100.503 457.821 114.469 446.402 118.546C443.286 119.659 440.214 117.576 437.976 115.063C434.409 111.06 433.662 105.397 434.579 100.023Z" fill="#1B2442"/>
<path fill-rule="evenodd" clip-rule="evenodd" d="M432.904 136.232L431.028 125.128L411.962 124.588L413.3 109.556L408.809 108.41L413.027 88.9199C421.714 96.2962 434.617 92.3314 434.617 92.3314L437.762 102.261C439.632 98.9209 442.765 93.6252 446.486 97.8015C450.206 101.979 444.448 109.193 444.448 109.193L452.487 134.009C452.487 134.009 441.711 144.886 432.904 136.232Z" fill="#F0AB86"/>
<path fill-rule="evenodd" clip-rule="evenodd" d="M450.023 158.051C456.241 157.498 462.753 161.212 465.17 167.361C467.446 173.149 465.875 179.755 463.517 185.511C460.59 192.656 456.514 199.247 452.46 205.799C446.513 215.409 440.227 225.366 430.677 231.244C421.935 236.627 411.44 237.979 401.295 239.211C390.384 240.537 379.473 241.865 368.563 243.191C368.356 239.403 367.965 235.935 367.426 230.98C376.012 230.024 394.556 223.869 396.824 222.849C409.037 217.351 422.799 205.441 428.594 193.401C433.443 183.323 436.719 159.239 450.023 158.051Z" fill="#2D83D2"/>
<path fill-rule="evenodd" clip-rule="evenodd" d="M450.023 158.051C456.241 157.498 462.753 161.212 465.17 167.361C467.446 173.149 465.875 179.755 463.517 185.511C460.59 192.656 456.514 199.247 452.46 205.799C446.513 215.409 440.227 225.366 430.677 231.244C421.935 236.627 411.44 237.979 401.295 239.211C390.384 240.537 379.473 241.865 368.563 243.191C368.356 239.403 367.965 235.935 367.426 230.98C376.012 230.024 394.556 223.869 396.824 222.849C409.037 217.351 422.799 205.441 428.594 193.401C433.443 183.323 436.719 159.239 450.023 158.051Z" fill="black" fill-opacity="0.1"/>
<path fill-rule="evenodd" clip-rule="evenodd" d="M413.255 110.776C415.552 109.709 418.437 109.888 420.57 111.228C421.784 111.991 422.747 113.083 423.998 113.788C427.21 115.595 431.657 114.234 433.924 111.413C436.19 108.592 435.399 97.0262 434.769 93.5254C436.224 93.5254 439.334 93.5254 440.79 93.5254C441.245 97.4363 440.794 108.406 440.79 112.339C440.786 115.971 440.534 119.779 438.545 122.879C435.535 127.57 429.37 129.43 423.64 130.12C419.829 130.579 415.629 130.591 412.55 128.404C409.854 126.489 408.54 123.099 408.854 119.91C409.17 116.722 410.229 112.178 413.255 110.776Z" fill="#1B2442"/>
<defs>
<linearGradient id="paint0_linear" x1="149.032" y1="190.35" x2="224.895" y2="190.35" gradientUnits="userSpaceOnUse">
<stop stop-color="#C673D7"/>
<stop offset="1" stop-color="#8B50BC"/>
</linearGradient>
<linearGradient id="paint1_linear" x1="119.149" y1="202.217" x2="181.219" y2="202.217" gradientUnits="userSpaceOnUse">
<stop stop-color="#C673D7"/>
<stop offset="1" stop-color="#8B50BC"/>
</linearGradient>
<linearGradient id="paint2_linear" x1="137.538" y1="199.502" x2="238.689" y2="199.502" gradientUnits="userSpaceOnUse">
<stop stop-color="#C673D7"/>
<stop offset="1" stop-color="#8B50BC"/>
</linearGradient>
</defs>
</svg>
