<?xml version="1.0" encoding="utf-8"?>
<!-- Generator: Adobe Illustrator 21.0.0, SVG Export Plug-In . SVG Version: 6.00 Build 0)  -->
<svg version="1.1" id="Layer_1" xmlns="http://www.w3.org/2000/svg" xmlns:xlink="http://www.w3.org/1999/xlink" x="0px" y="0px"
	 viewBox="0 0 878.7 737" style="enable-background:new 0 0 878.7 737;" xml:space="preserve">
<style type="text/css">
	.st0{fill:#FFFFFF;}
</style>
<g>
	<g>
		<g>
			<path class="st0" d="M411.3,366.9h27.4v9.5h-38.1v-55.4h38.1v9.5h-27.4V366.9z"/>
			<path class="st0" d="M438.8,377.1h-38.1c-0.4,0-0.7-0.3-0.7-0.7v-55.4c0-0.4,0.3-0.7,0.7-0.7h38.1c0.4,0,0.7,0.3,0.7,0.7v9.5
				c0,0.4-0.3,0.7-0.7,0.7h-26.7v35h26.7c0.4,0,0.7,0.3,0.7,0.7v9.5C439.5,376.8,439.2,377.1,438.8,377.1z M401.4,375.6H438v-8
				h-26.7c-0.4,0-0.7-0.3-0.7-0.7v-36.4c0-0.4,0.3-0.7,0.7-0.7H438v-8h-36.6V375.6z"/>
		</g>
		<g>
			<path class="st0" d="M483.8,320.9v55.4h-38.1v-55.4H483.8z M473.8,330.4h-17.4v36.4h17.4V330.4z"/>
			<path class="st0" d="M483.8,377.1h-38.1c-0.4,0-0.7-0.3-0.7-0.7v-55.4c0-0.4,0.3-0.7,0.7-0.7h38.1c0.4,0,0.7,0.3,0.7,0.7v55.4
				C484.5,376.8,484.2,377.1,483.8,377.1z M446.5,375.6h36.6v-54h-36.6V375.6z M473.8,367.6h-17.4c-0.4,0-0.7-0.3-0.7-0.7v-36.4
				c0-0.4,0.3-0.7,0.7-0.7h17.4c0.4,0,0.7,0.3,0.7,0.7v36.4C474.5,367.3,474.2,367.6,473.8,367.6z M457.1,366.1h15.9v-35h-15.9
				V366.1z"/>
		</g>
		<g>
			<path class="st0" d="M501.4,376.4h-10.7v-55.4h10.7l17.4,31.1v-31.1h10v55.4h-10l-17.4-32V376.4z"/>
			<path class="st0" d="M528.9,377.1h-10c-0.3,0-0.5-0.1-0.6-0.4l-16-29.5v29.1c0,0.4-0.3,0.7-0.7,0.7h-10.7c-0.4,0-0.7-0.3-0.7-0.7
				v-55.4c0-0.4,0.3-0.7,0.7-0.7h10.7c0.3,0,0.5,0.1,0.6,0.4l16,28.6v-28.3c0-0.4,0.3-0.7,0.7-0.7h10c0.4,0,0.7,0.3,0.7,0.7v55.4
				C529.6,376.8,529.3,377.1,528.9,377.1z M519.3,375.6h8.8v-54h-8.5V352c0,0.3-0.2,0.6-0.5,0.7c-0.3,0.1-0.7-0.1-0.8-0.4L501,321.7
				h-9.5v54h9.2v-31.3c0-0.3,0.2-0.6,0.6-0.7c0.3-0.1,0.7,0.1,0.8,0.4L519.3,375.6z"/>
		</g>
		<g>
			<path class="st0" d="M552.9,344.1h21v32.2h-38.1v-55.4h38.1v9.5h-27.4v36.4h17.4v-13.7h-11V344.1z"/>
			<path class="st0" d="M573.9,377.1h-38.1c-0.4,0-0.7-0.3-0.7-0.7v-55.4c0-0.4,0.3-0.7,0.7-0.7h38.1c0.4,0,0.7,0.3,0.7,0.7v9.5
				c0,0.4-0.3,0.7-0.7,0.7h-26.7v35h15.9v-12.2h-10.3c-0.4,0-0.7-0.3-0.7-0.7v-9c0-0.4,0.3-0.7,0.7-0.7h21c0.4,0,0.7,0.3,0.7,0.7
				v32.2C574.6,376.8,574.3,377.1,573.9,377.1z M536.6,375.6h36.6v-30.8h-19.6v7.6h10.3c0.4,0,0.7,0.3,0.7,0.7v13.7
				c0,0.4-0.3,0.7-0.7,0.7h-17.4c-0.4,0-0.7-0.3-0.7-0.7v-36.4c0-0.4,0.3-0.7,0.7-0.7h26.7v-8h-36.6V375.6z"/>
		</g>
		<g>
			<path class="st0" d="M580.9,376.4v-55.4H619v32.2h-13l13,23.2h-10l-13.7-23.2h-3.7v23.2H580.9z M591.5,330.4v13.7H609v-13.7
				H591.5z"/>
			<path class="st0" d="M619,377.1h-10c-0.3,0-0.5-0.1-0.6-0.4l-13.5-22.8h-2.6v22.5c0,0.4-0.3,0.7-0.7,0.7h-10.7
				c-0.4,0-0.7-0.3-0.7-0.7v-55.4c0-0.4,0.3-0.7,0.7-0.7H619c0.4,0,0.7,0.3,0.7,0.7v32.2c0,0.4-0.3,0.7-0.7,0.7h-11.8l12.4,22.1
				c0.1,0.2,0.1,0.5,0,0.7C619.5,377,619.2,377.1,619,377.1z M609.4,375.6h8.3l-12.4-22.1c-0.1-0.2-0.1-0.5,0-0.7
				c0.1-0.2,0.4-0.4,0.6-0.4h12.3v-30.8h-36.6v54h9.2v-22.5c0-0.4,0.3-0.7,0.7-0.7h3.7c0.3,0,0.5,0.1,0.6,0.4L609.4,375.6z
				 M609,344.9h-17.4c-0.4,0-0.7-0.3-0.7-0.7v-13.7c0-0.4,0.3-0.7,0.7-0.7H609c0.4,0,0.7,0.3,0.7,0.7v13.7
				C609.7,344.5,609.4,344.9,609,344.9z M592.3,343.4h15.9v-12.2h-15.9V343.4z"/>
		</g>
		<g>
			<path class="st0" d="M636.6,330.4v13.7H664v9h-27.4v13.7H664v9.5h-38.1v-55.4H664v9.5H636.6z"/>
			<path class="st0" d="M664,377.1h-38.1c-0.4,0-0.7-0.3-0.7-0.7v-55.4c0-0.4,0.3-0.7,0.7-0.7H664c0.4,0,0.7,0.3,0.7,0.7v9.5
				c0,0.4-0.3,0.7-0.7,0.7h-26.7v12.2H664c0.4,0,0.7,0.3,0.7,0.7v9c0,0.4-0.3,0.7-0.7,0.7h-26.7v12.2H664c0.4,0,0.7,0.3,0.7,0.7v9.5
				C664.7,376.8,664.4,377.1,664,377.1z M626.7,375.6h36.6v-8h-26.7c-0.4,0-0.7-0.3-0.7-0.7v-13.7c0-0.4,0.3-0.7,0.7-0.7h26.7v-7.6
				h-26.7c-0.4,0-0.7-0.3-0.7-0.7v-13.7c0-0.4,0.3-0.7,0.7-0.7h26.7v-8h-36.6V375.6z"/>
		</g>
		<g>
			<path class="st0" d="M671,353.2v-32.2h38.1v9.5h-27.4v13.7h27.4v32.2H671v-9.5h28.1v-13.7H671z"/>
			<path class="st0" d="M709.1,377.1H671c-0.4,0-0.7-0.3-0.7-0.7v-9.5c0-0.4,0.3-0.7,0.7-0.7h27.3v-12.2H671c-0.4,0-0.7-0.3-0.7-0.7
				v-32.2c0-0.4,0.3-0.7,0.7-0.7h38.1c0.4,0,0.7,0.3,0.7,0.7v9.5c0,0.4-0.3,0.7-0.7,0.7h-26.7v12.2h26.7c0.4,0,0.7,0.3,0.7,0.7v32.2
				C709.8,376.8,709.5,377.1,709.1,377.1z M671.7,375.6h36.6v-30.8h-26.7c-0.4,0-0.7-0.3-0.7-0.7v-13.7c0-0.4,0.3-0.7,0.7-0.7h26.7
				v-8h-36.6v30.8h27.3c0.4,0,0.7,0.3,0.7,0.7v13.7c0,0.4-0.3,0.7-0.7,0.7h-27.3V375.6z"/>
		</g>
		<g>
			<path class="st0" d="M754.1,320.9v55.4H716v-55.4H754.1z M744.1,330.4h-17.4v36.4h17.4V330.4z"/>
			<path class="st0" d="M754.1,377.1H716c-0.4,0-0.7-0.3-0.7-0.7v-55.4c0-0.4,0.3-0.7,0.7-0.7h38.1c0.4,0,0.7,0.3,0.7,0.7v55.4
				C754.8,376.8,754.5,377.1,754.1,377.1z M716.8,375.6h36.6v-54h-36.6V375.6z M744.1,367.6h-17.4c-0.4,0-0.7-0.3-0.7-0.7v-36.4
				c0-0.4,0.3-0.7,0.7-0.7h17.4c0.4,0,0.7,0.3,0.7,0.7v36.4C744.8,367.3,744.5,367.6,744.1,367.6z M727.4,366.1h15.9v-35h-15.9
				V366.1z"/>
		</g>
		<g>
			<path class="st0" d="M438.8,395.1v21l-4.7,6.9l4.7,6.9v20.6h-38.1v-55.4H438.8z M411.3,404.6v13.7h17.4v-13.7H411.3z
				 M411.3,427.3v13.7h17.4v-13.7H411.3z"/>
			<path class="st0" d="M438.8,451.3h-38.1c-0.4,0-0.7-0.3-0.7-0.7v-55.4c0-0.4,0.3-0.7,0.7-0.7h38.1c0.4,0,0.7,0.3,0.7,0.7v21
				c0,0.1,0,0.3-0.1,0.4L435,423l4.4,6.5c0.1,0.1,0.1,0.3,0.1,0.4v20.6C439.5,451,439.2,451.3,438.8,451.3z M401.4,449.8H438v-19.6
				l-4.5-6.8c-0.2-0.2-0.2-0.6,0-0.8l4.5-6.7v-20h-36.6V449.8z M428.8,441.8h-17.4c-0.4,0-0.7-0.3-0.7-0.7v-13.7
				c0-0.4,0.3-0.7,0.7-0.7h17.4c0.4,0,0.7,0.3,0.7,0.7v13.7C429.5,441.5,429.2,441.8,428.8,441.8z M412.1,440.3H428v-12.2h-15.9
				V440.3z M428.8,419.1h-17.4c-0.4,0-0.7-0.3-0.7-0.7v-13.7c0-0.4,0.3-0.7,0.7-0.7h17.4c0.4,0,0.7,0.3,0.7,0.7v13.7
				C429.5,418.7,429.2,419.1,428.8,419.1z M412.1,417.6H428v-12.2h-15.9V417.6z"/>
		</g>
		<g>
			<path class="st0" d="M456.4,404.6v13.7h27.4v9h-27.4v13.7h27.4v9.5h-38.1v-55.4h38.1v9.5H456.4z"/>
			<path class="st0" d="M483.8,451.3h-38.1c-0.4,0-0.7-0.3-0.7-0.7v-55.4c0-0.4,0.3-0.7,0.7-0.7h38.1c0.4,0,0.7,0.3,0.7,0.7v9.5
				c0,0.4-0.3,0.7-0.7,0.7h-26.7v12.2h26.7c0.4,0,0.7,0.3,0.7,0.7v9c0,0.4-0.3,0.7-0.7,0.7h-26.7v12.2h26.7c0.4,0,0.7,0.3,0.7,0.7
				v9.5C484.5,451,484.2,451.3,483.8,451.3z M446.5,449.8h36.6v-8h-26.7c-0.4,0-0.7-0.3-0.7-0.7v-13.7c0-0.4,0.3-0.7,0.7-0.7h26.7
				v-7.6h-26.7c-0.4,0-0.7-0.3-0.7-0.7v-13.7c0-0.4,0.3-0.7,0.7-0.7h26.7v-8h-36.6V449.8z"/>
		</g>
		<g>
			<path class="st0" d="M501.5,441.1h27.4v9.5h-38.1v-55.4h10.7V441.1z"/>
			<path class="st0" d="M528.9,451.3h-38.1c-0.4,0-0.7-0.3-0.7-0.7v-55.4c0-0.4,0.3-0.7,0.7-0.7h10.7c0.4,0,0.7,0.3,0.7,0.7v45.2
				h26.7c0.4,0,0.7,0.3,0.7,0.7v9.5C529.6,451,529.3,451.3,528.9,451.3z M491.5,449.8h36.6v-8h-26.7c-0.4,0-0.7-0.3-0.7-0.7v-45.2
				h-9.2V449.8z"/>
		</g>
		<g>
			<path class="st0" d="M546.5,441.1h27.4v9.5h-38.1v-55.4h10.7V441.1z"/>
			<path class="st0" d="M573.9,451.3h-38.1c-0.4,0-0.7-0.3-0.7-0.7v-55.4c0-0.4,0.3-0.7,0.7-0.7h10.7c0.4,0,0.7,0.3,0.7,0.7v45.2
				h26.7c0.4,0,0.7,0.3,0.7,0.7v9.5C574.7,451,574.3,451.3,573.9,451.3z M536.6,449.8h36.6v-8h-26.7c-0.4,0-0.7-0.3-0.7-0.7v-45.2
				h-9.2V449.8z"/>
		</g>
		<g>
			<path class="st0" d="M609,427.3h-17.4v23.2h-10.7v-55.4H619v55.4h-10V427.3z M591.6,404.6v13.7H609v-13.7H591.6z"/>
			<path class="st0" d="M619,451.3h-10c-0.4,0-0.7-0.3-0.7-0.7v-22.5h-15.9v22.5c0,0.4-0.3,0.7-0.7,0.7h-10.7
				c-0.4,0-0.7-0.3-0.7-0.7v-55.4c0-0.4,0.3-0.7,0.7-0.7H619c0.4,0,0.7,0.3,0.7,0.7v55.4C619.7,451,619.4,451.3,619,451.3z
				 M609.7,449.8h8.5v-54h-36.6v54h9.2v-22.5c0-0.4,0.3-0.7,0.7-0.7H609c0.4,0,0.7,0.3,0.7,0.7V449.8z M609,419.1h-17.4
				c-0.4,0-0.7-0.3-0.7-0.7v-13.7c0-0.4,0.3-0.7,0.7-0.7H609c0.4,0,0.7,0.3,0.7,0.7v13.7C609.7,418.7,609.4,419.1,609,419.1z
				 M592.3,417.6h15.9v-12.2h-15.9V417.6z"/>
		</g>
		<g>
			<path class="st0" d="M626,427.3v-32.2H664v9.5h-27.4v13.7H664v32.2H626v-9.5H654v-13.7H626z"/>
			<path class="st0" d="M664,451.3H626c-0.4,0-0.7-0.3-0.7-0.7v-9.5c0-0.4,0.3-0.7,0.7-0.7h27.3v-12.2H626c-0.4,0-0.7-0.3-0.7-0.7
				v-32.2c0-0.4,0.3-0.7,0.7-0.7H664c0.4,0,0.7,0.3,0.7,0.7v9.5c0,0.4-0.3,0.7-0.7,0.7h-26.7v12.2H664c0.4,0,0.7,0.3,0.7,0.7v32.2
				C664.8,451,664.4,451.3,664,451.3z M626.7,449.8h36.6v-30.8h-26.7c-0.4,0-0.7-0.3-0.7-0.7v-13.7c0-0.4,0.3-0.7,0.7-0.7h26.7v-8
				h-36.6v30.8H654c0.4,0,0.7,0.3,0.7,0.7v13.7c0,0.4-0.3,0.7-0.7,0.7h-27.3V449.8z"/>
		</g>
		<g>
			<path class="st0" d="M428.8,501.5h-17.4v23.2h-10.7v-55.4h38.1v55.4h-10V501.5z M411.3,478.8v13.7h17.4v-13.7H411.3z"/>
			<path class="st0" d="M438.8,525.5h-10c-0.4,0-0.7-0.3-0.7-0.7v-22.5h-15.9v22.5c0,0.4-0.3,0.7-0.7,0.7h-10.7
				c-0.4,0-0.7-0.3-0.7-0.7v-55.4c0-0.4,0.3-0.7,0.7-0.7h38.1c0.4,0,0.7,0.3,0.7,0.7v55.4C439.5,525.1,439.2,525.5,438.8,525.5z
				 M429.5,524h8.5v-54h-36.6v54h9.2v-22.5c0-0.4,0.3-0.7,0.7-0.7h17.4c0.4,0,0.7,0.3,0.7,0.7V524z M428.8,493.2h-17.4
				c-0.4,0-0.7-0.3-0.7-0.7v-13.7c0-0.4,0.3-0.7,0.7-0.7h17.4c0.4,0,0.7,0.3,0.7,0.7v13.7C429.5,492.9,429.2,493.2,428.8,493.2z
				 M412.1,491.8H428v-12.2h-15.9V491.8z"/>
		</g>
		<g>
			<path class="st0" d="M445.7,524.7v-55.4h38.1v32.2h-13l13,23.2h-10l-13.7-23.2h-3.7v23.2H445.7z M456.4,478.8v13.7h17.4v-13.7
				H456.4z"/>
			<path class="st0" d="M483.8,525.5h-10c-0.3,0-0.5-0.1-0.6-0.4l-13.5-22.8h-2.6v22.5c0,0.4-0.3,0.7-0.7,0.7h-10.7
				c-0.4,0-0.7-0.3-0.7-0.7v-55.4c0-0.4,0.3-0.7,0.7-0.7h38.1c0.4,0,0.7,0.3,0.7,0.7v32.2c0,0.4-0.3,0.7-0.7,0.7H472l12.4,22.1
				c0.1,0.2,0.1,0.5,0,0.7C484.3,525.3,484.1,525.5,483.8,525.5z M474.2,524h8.3l-12.4-22.1c-0.1-0.2-0.1-0.5,0-0.7
				c0.1-0.2,0.4-0.4,0.6-0.4h12.3V470h-36.6v54h9.2v-22.5c0-0.4,0.3-0.7,0.7-0.7h3.7c0.3,0,0.5,0.1,0.6,0.4L474.2,524z M473.8,493.2
				h-17.4c-0.4,0-0.7-0.3-0.7-0.7v-13.7c0-0.4,0.3-0.7,0.7-0.7h17.4c0.4,0,0.7,0.3,0.7,0.7v13.7
				C474.5,492.9,474.2,493.2,473.8,493.2z M457.1,491.8h15.9v-12.2h-15.9V491.8z"/>
		</g>
		<g>
			<path class="st0" d="M505.2,478.8h-14.4v-9.5h38.1v9.5h-13v45.9h-10.7V478.8z"/>
			<path class="st0" d="M515.8,525.5h-10.7c-0.4,0-0.7-0.3-0.7-0.7v-45.2h-13.7c-0.4,0-0.7-0.3-0.7-0.7v-9.5c0-0.4,0.3-0.7,0.7-0.7
				h38.1c0.4,0,0.7,0.3,0.7,0.7v9.5c0,0.4-0.3,0.7-0.7,0.7h-12.3v45.2C516.6,525.1,516.2,525.5,515.8,525.5z M505.9,524h9.2v-45.2
				c0-0.4,0.3-0.7,0.7-0.7h12.3v-8h-36.6v8h13.7c0.4,0,0.7,0.3,0.7,0.7V524z"/>
		</g>
		<g>
			<path class="st0" d="M546.5,478.8v13.7h27.4v9h-27.4v13.7h27.4v9.5h-38.1v-55.4h38.1v9.5H546.5z"/>
			<path class="st0" d="M573.9,525.5h-38.1c-0.4,0-0.7-0.3-0.7-0.7v-55.4c0-0.4,0.3-0.7,0.7-0.7h38.1c0.4,0,0.7,0.3,0.7,0.7v9.5
				c0,0.4-0.3,0.7-0.7,0.7h-26.7v12.2h26.7c0.4,0,0.7,0.3,0.7,0.7v9c0,0.4-0.3,0.7-0.7,0.7h-26.7v12.2h26.7c0.4,0,0.7,0.3,0.7,0.7
				v9.5C574.6,525.1,574.3,525.5,573.9,525.5z M536.6,524h36.6v-8h-26.7c-0.4,0-0.7-0.3-0.7-0.7v-13.7c0-0.4,0.3-0.7,0.7-0.7h26.7
				v-7.6h-26.7c-0.4,0-0.7-0.3-0.7-0.7v-13.7c0-0.4,0.3-0.7,0.7-0.7h26.7v-8h-36.6V524z"/>
		</g>
		<g>
			<path class="st0" d="M580.9,501.5v-32.2H619v9.5h-27.4v13.7H619v32.2h-38.1v-9.5H609v-13.7H580.9z"/>
			<path class="st0" d="M619,525.5h-38.1c-0.4,0-0.7-0.3-0.7-0.7v-9.5c0-0.4,0.3-0.7,0.7-0.7h27.3v-12.2h-27.3
				c-0.4,0-0.7-0.3-0.7-0.7v-32.2c0-0.4,0.3-0.7,0.7-0.7H619c0.4,0,0.7,0.3,0.7,0.7v9.5c0,0.4-0.3,0.7-0.7,0.7h-26.7v12.2H619
				c0.4,0,0.7,0.3,0.7,0.7v32.2C619.7,525.1,619.4,525.5,619,525.5z M581.6,524h36.6v-30.8h-26.7c-0.4,0-0.7-0.3-0.7-0.7v-13.7
				c0-0.4,0.3-0.7,0.7-0.7h26.7v-8h-36.6v30.8H609c0.4,0,0.7,0.3,0.7,0.7v13.7c0,0.4-0.3,0.7-0.7,0.7h-27.3V524z"/>
		</g>
	</g>
	<g>
		<g>
			<path class="st0" d="M131,565.4v26h11v4.7h-15.7v-30.7H131z"/>
		</g>
		<g>
			<path class="st0" d="M171.1,565.4v30.7h-4.7v-7.2H156l-4.5,7.2h-5.5l19.4-30.7H171.1z M158.9,584.3h7.5v-11.8L158.9,584.3z"/>
		</g>
		<g>
			<path class="st0" d="M206.5,565.4v4.7h-11v8.3h8.5v4.7h-8.5v8.4h11v4.7h-15.7v-30.7H206.5z"/>
		</g>
		<g>
			<path class="st0" d="M212,596.1v-30.7h8.1c4.2,0,7.8,1.5,10.9,4.5c3,3,4.5,6.6,4.5,10.9c0,4.2-1.5,7.8-4.5,10.8
				c-3,3-6.6,4.5-10.9,4.5H212z M216.7,591.5h3.4c2.9,0,5.5-1.1,7.6-3.2c2.1-2.1,3.1-4.6,3.1-7.5c0-3-1-5.5-3.1-7.6
				c-2.1-2.1-4.6-3.2-7.6-3.2h-3.4V591.5z"/>
		</g>
		<g>
			<path class="st0" d="M244.6,593.2c-2.1-2.1-3.2-4.7-3.2-7.7v-20.1h4.7v20.1c0,1.7,0.6,3.2,1.8,4.4c1.2,1.2,2.7,1.8,4.4,1.8
				c1.7,0,3.2-0.6,4.4-1.8c1.2-1.2,1.8-2.7,1.8-4.4v-20.1h4.7v20.1c0,3-1.1,5.6-3.2,7.7c-2.1,2.1-4.7,3.2-7.7,3.2
				C249.3,596.4,246.7,595.3,244.6,593.2z"/>
		</g>
		<g>
			<path class="st0" d="M284.6,591.7c1.9,0,3.6-0.4,5.2-1.3v5.1c-1.7,0.6-3.4,0.9-5.2,0.9c-4.3,0-8-1.5-11.1-4.6
				c-3.1-3.1-4.6-6.7-4.6-11.1c0-4.3,1.5-8,4.6-11.1c3.1-3.1,6.7-4.6,11.1-4.6c1.8,0,3.5,0.3,5.2,0.9v5.1c-1.6-0.9-3.4-1.3-5.2-1.3
				c-3,0-5.6,1.1-7.8,3.2c-2.1,2.1-3.2,4.7-3.2,7.8s1.1,5.6,3.2,7.8S281.6,591.7,284.6,591.7z"/>
		</g>
		<g>
			<path class="st0" d="M319.1,565.4v30.7h-4.7v-7.2H304l-4.5,7.2h-5.5l19.4-30.7H319.1z M306.9,584.3h7.5v-11.8L306.9,584.3z"/>
		</g>
		<g>
			<path class="st0" d="M340.5,591.7c1.9,0,3.6-0.4,5.2-1.3v5.1c-1.7,0.6-3.4,0.9-5.2,0.9c-4.3,0-8-1.5-11.1-4.6
				c-3.1-3.1-4.6-6.7-4.6-11.1c0-4.3,1.5-8,4.6-11.1c3.1-3.1,6.7-4.6,11.1-4.6c1.8,0,3.5,0.3,5.2,0.9v5.1c-1.6-0.9-3.4-1.3-5.2-1.3
				c-3,0-5.6,1.1-7.8,3.2c-2.1,2.1-3.2,4.7-3.2,7.8s1.1,5.6,3.2,7.8S337.4,591.7,340.5,591.7z"/>
		</g>
		<g>
			<path class="st0" d="M356.1,596.1h-4.7v-30.6h4.7V596.1z"/>
		</g>
		<g>
			<path class="st0" d="M365.9,591.8c-3.1-3.1-4.6-6.7-4.6-11.1c0-4.3,1.5-8,4.6-11.1c3.1-3.1,6.7-4.6,11.1-4.6
				c4.3,0,8,1.5,11.1,4.6c3.1,3.1,4.6,6.7,4.6,11.1c0,4.3-1.5,8-4.6,11.1c-3.1,3.1-6.7,4.6-11.1,4.6
				C372.7,596.4,369,594.9,365.9,591.8z M369.3,573c-2.1,2.1-3.2,4.7-3.2,7.8s1.1,5.6,3.2,7.8s4.7,3.2,7.8,3.2c3,0,5.6-1.1,7.8-3.2
				s3.2-4.7,3.2-7.8s-1.1-5.6-3.2-7.8c-2.1-2.1-4.7-3.2-7.8-3.2C374,569.8,371.4,570.9,369.3,573z M379.5,559.1l-2.1,4.5h-2.8v-4.5
				H379.5z"/>
		</g>
		<g>
			<path class="st0" d="M420.5,565.4v30.7h-4.9l-13.1-21.9v21.9h-4.7v-30.7h4.9l13.1,21.9v-21.9H420.5z"/>
		</g>
		<g>
			<path class="st0" d="M462.5,565.4v30.7h-4.7v-7.2h-10.4l-4.5,7.2h-5.5l19.4-30.7H462.5z M450.3,584.3h7.5v-11.8L450.3,584.3z"/>
		</g>
		<g>
			<path class="st0" d="M491.2,596.1h-5.3l-6.7-12.9H474v12.9h-4.7v-30.7h11.3c2.4,0,4.5,0.9,6.3,2.6c1.7,1.7,2.6,3.8,2.6,6.3
				c0,1.8-0.5,3.4-1.5,4.9c-1,1.5-2.3,2.5-3.9,3.2L491.2,596.1z M480.7,578.5c1.2,0,2.2-0.4,3-1.2c0.8-0.8,1.2-1.8,1.2-3
				c0-1.2-0.4-2.2-1.2-3c-0.8-0.8-1.8-1.2-3-1.2H474v8.4H480.7z"/>
		</g>
		<g>
			<path class="st0" d="M512.3,565.4v4.7h-6.5v26h-4.7v-26h-6.5v-4.7H512.3z"/>
		</g>
		<g>
			<path class="st0" d="M523.3,559.1l-2.1,4.5h-2.8v-4.5H523.3z M523,565.5h-4.7v30.6h4.7V565.5z"/>
		</g>
		<g>
			<path class="st0" d="M538.1,596.4c-2-0.1-3.9-0.6-5.6-1.6c-1.9-1.1-3.3-2.6-4-4.5l4.4-1.6c0.4,0.9,1.1,1.7,2.2,2.3
				c1,0.5,2.1,0.8,3.2,0.8c1.8,0.1,3.3-0.4,4.4-1.3c1-0.8,1.5-1.7,1.6-2.7c0.1-2-2-3.5-6.2-4.7c-6.6-1.8-9.7-5-9.5-9.4
				c0.1-3.1,1.5-5.4,4-6.9c1.9-1.2,4.2-1.7,6.9-1.6c3.3,0.1,5.9,1.3,7.8,3.4l-3.4,3.2c-1.1-1.2-2.7-1.8-4.7-1.9
				c-1.4-0.1-2.6,0.1-3.6,0.5c-1.5,0.7-2.4,1.8-2.4,3.5c-0.1,1.9,2,3.5,6.2,4.7c3.8,1.1,6.4,2.6,8,4.7c1.1,1.4,1.6,3,1.5,4.7
				c-0.1,2.4-1.2,4.5-3.3,6.2c-1.9,1.6-4.3,2.3-7,2.3C538.5,596.4,538.3,596.4,538.1,596.4z"/>
		</g>
		<g>
			<path class="st0" d="M571.1,565.4v4.7h-6.5v26H560v-26h-6.5v-4.7H571.1z"/>
		</g>
		<g>
			<path class="st0" d="M581.8,596.1h-4.7v-30.6h4.7V596.1z"/>
		</g>
		<g>
			<path class="st0" d="M603.1,591.7c1.9,0,3.6-0.4,5.2-1.3v5.1c-1.7,0.6-3.4,0.9-5.2,0.9c-4.3,0-8-1.5-11.1-4.6s-4.6-6.7-4.6-11.1
				c0-4.3,1.5-8,4.6-11.1c3.1-3.1,6.7-4.6,11.1-4.6c1.8,0,3.5,0.3,5.2,0.9v5.1c-1.6-0.9-3.4-1.3-5.2-1.3c-3,0-5.6,1.1-7.8,3.2
				c-2.1,2.1-3.2,4.7-3.2,7.8s1.1,5.6,3.2,7.8S600,591.7,603.1,591.7z"/>
		</g>
		<g>
			<path class="st0" d="M637.5,565.4v30.7h-4.7v-7.2h-10.4l-4.5,7.2h-5.5l19.4-30.7H637.5z M625.4,584.3h7.5v-11.8L625.4,584.3z"/>
		</g>
		<g>
			<path class="st0" d="M662,596.1h-4.7v-30.7h11.3c2.4,0,4.5,0.9,6.3,2.6c1.7,1.7,2.6,3.8,2.6,6.3c0,2.4-0.9,4.5-2.6,6.3
				c-1.7,1.7-3.8,2.6-6.3,2.6H662V596.1z M662,578.5h6.7c1.2,0,2.2-0.4,3-1.2c0.8-0.8,1.2-1.8,1.2-3c0-1.2-0.4-2.2-1.2-3
				c-0.8-0.8-1.8-1.2-3-1.2H662V578.5z"/>
		</g>
		<g>
			<path class="st0" d="M696.5,565.4v30.7h-4.7v-7.2h-10.4l-4.5,7.2h-5.5l19.4-30.7H696.5z M684.3,584.3h7.5v-11.8L684.3,584.3z"/>
		</g>
		<g>
			<path class="st0" d="M725.2,596.1h-5.3l-6.7-12.9H708v12.9h-4.7v-30.7h11.3c2.4,0,4.5,0.9,6.3,2.6c1.7,1.7,2.6,3.8,2.6,6.3
				c0,1.8-0.5,3.4-1.5,4.9c-1,1.5-2.3,2.5-3.9,3.2L725.2,596.1z M714.6,578.5c1.2,0,2.2-0.4,3-1.2c0.8-0.8,1.2-1.8,1.2-3
				c0-1.2-0.4-2.2-1.2-3c-0.8-0.8-1.8-1.2-3-1.2H708v8.4H714.6z"/>
		</g>
		<g>
			<path class="st0" d="M753.2,565.4v30.7h-4.7v-7.2h-10.4l-4.5,7.2h-5.5l19.4-30.7H753.2z M741,584.3h7.5v-11.8L741,584.3z"/>
		</g>
		<g>
			<path class="st0" d="M142,618.1v4.7h-11v8.3h8.5v4.7H131v8.4h11v4.7h-15.7v-30.7H142z"/>
		</g>
		<g>
			<path class="st0" d="M156.5,618.1v26h11v4.7h-15.7v-30.7H156.5z"/>
		</g>
		<g>
			<path class="st0" d="M199.1,648.8h-4.7v-30.7h11.3c2.4,0,4.5,0.9,6.3,2.6c1.7,1.7,2.6,3.8,2.6,6.3c0,2.4-0.9,4.5-2.6,6.3
				c-1.7,1.7-3.8,2.6-6.3,2.6h-6.7V648.8z M199.1,631.2h6.7c1.2,0,2.2-0.4,3-1.2c0.8-0.8,1.2-1.8,1.2-3c0-1.2-0.4-2.2-1.2-3
				c-0.8-0.8-1.8-1.2-3-1.2h-6.7V631.2z"/>
		</g>
		<g>
			<path class="st0" d="M240.2,618.1v4.7h-11v8.3h8.5v4.7h-8.5v8.4h11v4.7h-15.7v-30.7H240.2z"/>
		</g>
		<g>
			<path class="st0" d="M271.8,648.8h-5.3l-6.7-12.9h-5.3v12.9h-4.7v-30.7h11.3c2.4,0,4.5,0.9,6.3,2.6c1.7,1.7,2.6,3.8,2.6,6.3
				c0,1.8-0.5,3.4-1.5,4.9c-1,1.5-2.3,2.5-3.9,3.2L271.8,648.8z M261.2,631.2c1.2,0,2.2-0.4,3-1.2c0.8-0.8,1.2-1.8,1.2-3
				c0-1.2-0.4-2.2-1.2-3c-0.8-0.8-1.8-1.2-3-1.2h-6.7v8.4H261.2z"/>
		</g>
		<g>
			<path class="st0" d="M284,645.9c-2.1-2.1-3.2-4.7-3.2-7.7v-20.1h4.7v20.1c0,1.7,0.6,3.2,1.8,4.4c1.2,1.2,2.7,1.8,4.4,1.8
				c1.7,0,3.2-0.6,4.4-1.8c1.2-1.2,1.8-2.7,1.8-4.4v-20.1h4.7v20.1c0,3-1.1,5.6-3.2,7.7c-2.1,2.1-4.7,3.2-7.7,3.2
				C288.7,649.1,286.1,648,284,645.9z M294.2,611.8l-2.1,4.5h-2.8v-4.5H294.2z"/>
		</g>
		<g>
			<path class="st0" d="M352.3,618.1l-9.6,16.3v14.4h-4.7v-14.4l-9.6-16.3h5.4l6.5,11l6.5-11H352.3z"/>
		</g>
		<g>
			<path class="st0" d="M382.7,618.1v26h11v4.7h-15.7v-30.7H382.7z"/>
		</g>
		<g>
			<path class="st0" d="M427.1,618.1v30.7h-4.7v-7.2H412l-4.5,7.2H402l19.4-30.7H427.1z M415,637h7.5v-11.8L415,637z"/>
		</g>
		<g>
			<path class="st0" d="M455.1,618.1v4.7h-6.5v26H444v-26h-6.5v-4.7H455.1z"/>
		</g>
		<g>
			<path class="st0" d="M470.1,648.8h-4.7v-30.6h4.7V648.8z"/>
		</g>
		<g>
			<path class="st0" d="M503.7,618.1v30.7h-4.9l-13.1-21.9v21.9h-4.7v-30.7h4.9l13.1,21.9v-21.9H503.7z"/>
		</g>
		<g>
			<path class="st0" d="M517.7,644.5c-3.1-3.1-4.6-6.7-4.6-11.1c0-4.3,1.5-8,4.6-11.1c3.1-3.1,6.7-4.6,11.1-4.6
				c4.3,0,8,1.5,11.1,4.6c3.1,3.1,4.6,6.7,4.6,11.1c0,4.3-1.5,8-4.6,11.1s-6.7,4.6-11.1,4.6C524.4,649.1,520.7,647.6,517.7,644.5z
				 M521,625.7c-2.1,2.1-3.2,4.7-3.2,7.8c0,3,1.1,5.6,3.2,7.8c2.1,2.1,4.7,3.2,7.8,3.2s5.6-1.1,7.8-3.2s3.2-4.7,3.2-7.8
				c0-3-1.1-5.6-3.2-7.8c-2.1-2.1-4.7-3.2-7.8-3.2S523.1,623.5,521,625.7z"/>
		</g>
		<g>
			<path class="st0" d="M573.4,618.1v30.7h-4.7v-7.2h-10.4l-4.5,7.2h-5.5l19.4-30.7H573.4z M561.2,637h7.5v-11.8L561.2,637z"/>
		</g>
		<g>
			<path class="st0" d="M616.5,618.1v30.7h-4.7v-19.5l-8.5,19.5h-5.3l-8.4-19.4v19.4H585v-30.7h4.9l10.8,25l10.9-25H616.5z"/>
		</g>
		<g>
			<path class="st0" d="M643.5,618.1v4.7h-11v8.3h8.5v4.7h-8.5v8.4h11v4.7h-15.7v-30.7H643.5z M633.2,611.8v4.5h2.8l2.1-4.5H633.2z"
				/>
		</g>
		<g>
			<path class="st0" d="M675,648.8h-5.3l-6.7-12.9h-5.3v12.9h-4.7v-30.7h11.3c2.4,0,4.5,0.9,6.3,2.6c1.7,1.7,2.6,3.8,2.6,6.3
				c0,1.8-0.5,3.4-1.5,4.9c-1,1.5-2.3,2.5-3.9,3.2L675,648.8z M664.5,631.2c1.2,0,2.2-0.4,3-1.2c0.8-0.8,1.2-1.8,1.2-3
				c0-1.2-0.4-2.2-1.2-3c-0.8-0.8-1.8-1.2-3-1.2h-6.7v8.4H664.5z"/>
		</g>
		<g>
			<path class="st0" d="M688.5,648.8h-4.7v-30.6h4.7V648.8z"/>
		</g>
		<g>
			<path class="st0" d="M714,644.4c1.9,0,3.6-0.4,5.2-1.3v5.1c-1.7,0.6-3.4,0.9-5.2,0.9c-4.3,0-8-1.5-11.1-4.6
				c-3.1-3.1-4.6-6.7-4.6-11.1c0-4.3,1.5-8,4.6-11.1c3.1-3.1,6.7-4.6,11.1-4.6c1.8,0,3.5,0.3,5.2,0.9v5.1c-1.6-0.9-3.4-1.3-5.2-1.3
				c-3,0-5.6,1.1-7.8,3.2c-2.1,2.1-3.2,4.7-3.2,7.8c0,3,1.1,5.6,3.2,7.8S711,644.4,714,644.4z"/>
		</g>
		<g>
			<path class="st0" d="M752.8,618.1v30.7h-4.7v-7.2h-10.4l-4.5,7.2h-5.5l19.4-30.7H752.8z M740.6,637h7.5v-11.8L740.6,637z"/>
		</g>
	</g>
	<g>
		<g>
			<g>
				<path class="st0" d="M204.8,434.7l12.5-12.2l-12.5-12.2c-0.4-0.4-0.7-1-0.7-1.6v-88.5h-23.7v81.4c0,1.2-1,2.2-2.2,2.2h-27.7
					c-1.2,0-2.2-1-2.2-2.2v-81.4h-24.4v200.9c0,2.4,2,4.4,4.4,4.4h75.9v-89.2C204.2,435.7,204.4,435.1,204.8,434.7z M180.5,485.2
					c0,1.2-1,2.2-2.2,2.2h-27.7c-1.2,0-2.2-1-2.2-2.2v-41.8c0-1.2,1-2.2,2.2-2.2h27.7c1.2,0,2.2,1,2.2,2.2V485.2z"/>
			</g>
		</g>
		<g>
			<g>
				<path class="st0" d="M206.4,153.1h-39.8V274h39.8c1.2,0,2.2,1,2.2,2.2v39.6h79.5v-87.5l-13.4-13.1c-0.4-0.4-0.7-1-0.7-1.6
					s0.2-1.2,0.7-1.6l13.4-13.1v-88.3h-79.5v40.3C208.6,152.1,207.6,153.1,206.4,153.1z M232.3,150.8c0-1.2,1-2.2,2.2-2.2h27.7
					c1.2,0,2.2,1,2.2,2.2v41.8c0,1.2-1,2.2-2.2,2.2h-27.7c-1.2,0-2.2-1-2.2-2.2V150.8z M232.3,234.4c0-1.2,1-2.2,2.2-2.2h27.7
					c1.2,0,2.2,1,2.2,2.2v41.8c0,1.2-1,2.2-2.2,2.2h-27.7c-1.2,0-2.2-1-2.2-2.2V234.4z"/>
			</g>
		</g>
		<g>
			<g>
				<path class="st0" d="M344,318v-81.4h-23.3V318c0,1.2-1,2.2-2.2,2.2h-25.9v37.4h39.8c1.2,0,2.2,1,2.2,2.2v125.4
					c0,1.2-1,2.2-2.2,2.2h-39.8v38.1h75.9c2.4,0,4.4-2,4.4-4.4V320.2h-26.7C345,320.2,344,319.2,344,318z"/>
			</g>
		</g>
		<g>
			<g>
				<path class="st0" d="M152.8,318v81.4H176V318c0-1.2,1-2.2,2.2-2.2h25.9v-37.4h-39.8c-1.2,0-2.2-1-2.2-2.2V150.8
					c0-1.2,1-2.2,2.2-2.2h39.8v-38.1h-75.9c-2.4,0-4.4,2-4.4,4.4v200.9h26.7C151.8,315.8,152.8,316.8,152.8,318z"/>
			</g>
		</g>
		<g>
			<g>
				<path class="st0" d="M368.5,110.5h-75.9v89.2c0,0.6-0.2,1.2-0.7,1.6l-12.5,12.2l12.5,12.2c0.4,0.4,0.7,1,0.7,1.6v88.5h23.7
					v-81.4c0-1.2,1-2.2,2.2-2.2h27.7c1.2,0,2.2,1,2.2,2.2v81.4h24.4V114.9C372.9,112.5,370.9,110.5,368.5,110.5z M348.4,192.6
					c0,1.2-1,2.2-2.2,2.2h-27.7c-1.2,0-2.2-1-2.2-2.2v-41.8c0-1.2,1-2.2,2.2-2.2h27.7c1.2,0,2.2,1,2.2,2.2V192.6z"/>
			</g>
		</g>
		<g>
			<g>
				<path class="st0" d="M290.4,483h39.8V362h-39.8c-1.2,0-2.2-1-2.2-2.2v-39.6h-79.5v87.5l13.4,13.1c0.4,0.4,0.7,1,0.7,1.6
					s-0.2,1.2-0.7,1.6l-13.4,13.1v88.3h79.5v-40.3C288.2,484,289.2,483,290.4,483z M262.2,441.2c1.2,0,2.2,1,2.2,2.2v41.8
					c0,1.2-1,2.2-2.2,2.2h-27.7c-1.2,0-2.2-1-2.2-2.2v-41.8c0-1.2,1-2.2,2.2-2.2 M264.5,401.6c0,1.2-1,2.2-2.2,2.2h-27.7
					c-1.2,0-2.2-1-2.2-2.2v-41.8c0-1.2,1-2.2,2.2-2.2h27.7c1.2,0,2.2,1,2.2,2.2V401.6z"/>
			</g>
		</g>
	</g>
</g>
</svg>
