<?xml version="1.0" encoding="utf-8"?>
<!-- Generator: Adobe Illustrator 21.0.0, SVG Export Plug-In . SVG Version: 6.00 Build 0)  -->
<svg version="1.1" id="Layer_1" xmlns="http://www.w3.org/2000/svg" xmlns:xlink="http://www.w3.org/1999/xlink" x="0px" y="0px"
	 viewBox="0 0 878.7 737" style="enable-background:new 0 0 878.7 737;" xml:space="preserve">
<style type="text/css">
	.st0{fill:#E3AF10;}
	.st1{fill:#603811;}
	.st2{fill:#CE2C2B;}
	.st3{fill:none;}
</style>
<g>
	<g>
		<g>
			<path class="st0" d="M411.3,355.5h27.4v9.5h-38.1v-55.4h38.1v9.5h-27.4V355.5z"/>
			<path class="st0" d="M438.8,365.8h-38.1c-0.4,0-0.7-0.3-0.7-0.7v-55.4c0-0.4,0.3-0.7,0.7-0.7h38.1c0.4,0,0.7,0.3,0.7,0.7v9.5
				c0,0.4-0.3,0.7-0.7,0.7h-26.7v35h26.7c0.4,0,0.7,0.3,0.7,0.7v9.5C439.5,365.4,439.2,365.8,438.8,365.8z M401.4,364.3H438v-8
				h-26.7c-0.4,0-0.7-0.3-0.7-0.7v-36.4c0-0.4,0.3-0.7,0.7-0.7H438v-8h-36.6V364.3z"/>
		</g>
		<g>
			<path class="st0" d="M483.8,309.6V365h-38.1v-55.4H483.8z M473.8,319.1h-17.4v36.4h17.4V319.1z"/>
			<path class="st0" d="M483.8,365.8h-38.1c-0.4,0-0.7-0.3-0.7-0.7v-55.4c0-0.4,0.3-0.7,0.7-0.7h38.1c0.4,0,0.7,0.3,0.7,0.7V365
				C484.5,365.4,484.2,365.8,483.8,365.8z M446.5,364.3h36.6v-54h-36.6V364.3z M473.8,356.3h-17.4c-0.4,0-0.7-0.3-0.7-0.7v-36.4
				c0-0.4,0.3-0.7,0.7-0.7h17.4c0.4,0,0.7,0.3,0.7,0.7v36.4C474.5,356,474.2,356.3,473.8,356.3z M457.1,354.8h15.9v-35h-15.9V354.8z
				"/>
		</g>
		<g>
			<path class="st0" d="M501.4,365h-10.7v-55.4h10.7l17.4,31.1v-31.1h10V365h-10l-17.4-32V365z"/>
			<path class="st0" d="M528.9,365.8h-10c-0.3,0-0.5-0.1-0.6-0.4l-16-29.5V365c0,0.4-0.3,0.7-0.7,0.7h-10.7c-0.4,0-0.7-0.3-0.7-0.7
				v-55.4c0-0.4,0.3-0.7,0.7-0.7h10.7c0.3,0,0.5,0.1,0.6,0.4l16,28.6v-28.3c0-0.4,0.3-0.7,0.7-0.7h10c0.4,0,0.7,0.3,0.7,0.7V365
				C529.6,365.4,529.3,365.8,528.9,365.8z M519.3,364.3h8.8v-54h-8.5v30.3c0,0.3-0.2,0.6-0.5,0.7c-0.3,0.1-0.7-0.1-0.8-0.4
				L501,310.3h-9.5v54h9.2V333c0-0.3,0.2-0.6,0.6-0.7c0.3-0.1,0.7,0.1,0.8,0.4L519.3,364.3z"/>
		</g>
		<g>
			<path class="st0" d="M552.9,332.8h21V365h-38.1v-55.4h38.1v9.5h-27.4v36.4h17.4v-13.7h-11V332.8z"/>
			<path class="st0" d="M573.9,365.8h-38.1c-0.4,0-0.7-0.3-0.7-0.7v-55.4c0-0.4,0.3-0.7,0.7-0.7h38.1c0.4,0,0.7,0.3,0.7,0.7v9.5
				c0,0.4-0.3,0.7-0.7,0.7h-26.7v35h15.9v-12.2h-10.3c-0.4,0-0.7-0.3-0.7-0.7v-9c0-0.4,0.3-0.7,0.7-0.7h21c0.4,0,0.7,0.3,0.7,0.7
				V365C574.6,365.4,574.3,365.8,573.9,365.8z M536.6,364.3h36.6v-30.8h-19.6v7.6h10.3c0.4,0,0.7,0.3,0.7,0.7v13.7
				c0,0.4-0.3,0.7-0.7,0.7h-17.4c-0.4,0-0.7-0.3-0.7-0.7v-36.4c0-0.4,0.3-0.7,0.7-0.7h26.7v-8h-36.6V364.3z"/>
		</g>
		<g>
			<path class="st0" d="M580.9,365v-55.4H619v32.2h-13l13,23.2h-10l-13.7-23.2h-3.7V365H580.9z M591.5,319.1v13.7H609v-13.7H591.5z"
				/>
			<path class="st0" d="M619,365.8h-10c-0.3,0-0.5-0.1-0.6-0.4l-13.5-22.8h-2.6V365c0,0.4-0.3,0.7-0.7,0.7h-10.7
				c-0.4,0-0.7-0.3-0.7-0.7v-55.4c0-0.4,0.3-0.7,0.7-0.7H619c0.4,0,0.7,0.3,0.7,0.7v32.2c0,0.4-0.3,0.7-0.7,0.7h-11.8l12.4,22.1
				c0.1,0.2,0.1,0.5,0,0.7C619.5,365.6,619.2,365.8,619,365.8z M609.4,364.3h8.3l-12.4-22.1c-0.1-0.2-0.1-0.5,0-0.7
				c0.1-0.2,0.4-0.4,0.6-0.4h12.3v-30.8h-36.6v54h9.2v-22.5c0-0.4,0.3-0.7,0.7-0.7h3.7c0.3,0,0.5,0.1,0.6,0.4L609.4,364.3z
				 M609,333.5h-17.4c-0.4,0-0.7-0.3-0.7-0.7v-13.7c0-0.4,0.3-0.7,0.7-0.7H609c0.4,0,0.7,0.3,0.7,0.7v13.7
				C609.7,333.2,609.4,333.5,609,333.5z M592.3,332.1h15.9v-12.2h-15.9V332.1z"/>
		</g>
		<g>
			<path class="st0" d="M636.6,319.1v13.7H664v9h-27.4v13.7H664v9.5h-38.1v-55.4H664v9.5H636.6z"/>
			<path class="st0" d="M664,365.8h-38.1c-0.4,0-0.7-0.3-0.7-0.7v-55.4c0-0.4,0.3-0.7,0.7-0.7H664c0.4,0,0.7,0.3,0.7,0.7v9.5
				c0,0.4-0.3,0.7-0.7,0.7h-26.7v12.2H664c0.4,0,0.7,0.3,0.7,0.7v9c0,0.4-0.3,0.7-0.7,0.7h-26.7v12.2H664c0.4,0,0.7,0.3,0.7,0.7v9.5
				C664.7,365.4,664.4,365.8,664,365.8z M626.7,364.3h36.6v-8h-26.7c-0.4,0-0.7-0.3-0.7-0.7v-13.7c0-0.4,0.3-0.7,0.7-0.7h26.7v-7.6
				h-26.7c-0.4,0-0.7-0.3-0.7-0.7v-13.7c0-0.4,0.3-0.7,0.7-0.7h26.7v-8h-36.6V364.3z"/>
		</g>
		<g>
			<path class="st0" d="M671,341.8v-32.2h38.1v9.5h-27.4v13.7h27.4V365H671v-9.5h28.1v-13.7H671z"/>
			<path class="st0" d="M709.1,365.8H671c-0.4,0-0.7-0.3-0.7-0.7v-9.5c0-0.4,0.3-0.7,0.7-0.7h27.3v-12.2H671c-0.4,0-0.7-0.3-0.7-0.7
				v-32.2c0-0.4,0.3-0.7,0.7-0.7h38.1c0.4,0,0.7,0.3,0.7,0.7v9.5c0,0.4-0.3,0.7-0.7,0.7h-26.7v12.2h26.7c0.4,0,0.7,0.3,0.7,0.7V365
				C709.8,365.4,709.5,365.8,709.1,365.8z M671.7,364.3h36.6v-30.8h-26.7c-0.4,0-0.7-0.3-0.7-0.7v-13.7c0-0.4,0.3-0.7,0.7-0.7h26.7
				v-8h-36.6v30.8h27.3c0.4,0,0.7,0.3,0.7,0.7v13.7c0,0.4-0.3,0.7-0.7,0.7h-27.3V364.3z"/>
		</g>
		<g>
			<path class="st0" d="M754.1,309.6V365H716v-55.4H754.1z M744.1,319.1h-17.4v36.4h17.4V319.1z"/>
			<path class="st0" d="M754.1,365.8H716c-0.4,0-0.7-0.3-0.7-0.7v-55.4c0-0.4,0.3-0.7,0.7-0.7h38.1c0.4,0,0.7,0.3,0.7,0.7V365
				C754.8,365.4,754.5,365.8,754.1,365.8z M716.8,364.3h36.6v-54h-36.6V364.3z M744.1,356.3h-17.4c-0.4,0-0.7-0.3-0.7-0.7v-36.4
				c0-0.4,0.3-0.7,0.7-0.7h17.4c0.4,0,0.7,0.3,0.7,0.7v36.4C744.8,356,744.5,356.3,744.1,356.3z M727.4,354.8h15.9v-35h-15.9V354.8z
				"/>
		</g>
		<g>
			<path class="st1" d="M438.8,383.8v21l-4.7,6.9l4.7,6.9v20.6h-38.1v-55.4H438.8z M411.3,393.3V407h17.4v-13.7H411.3z M411.3,416
				v13.7h17.4V416H411.3z"/>
			<path class="st1" d="M438.8,440h-38.1c-0.4,0-0.7-0.3-0.7-0.7v-55.4c0-0.4,0.3-0.7,0.7-0.7h38.1c0.4,0,0.7,0.3,0.7,0.7v21
				c0,0.1,0,0.3-0.1,0.4l-4.4,6.5l4.4,6.5c0.1,0.1,0.1,0.3,0.1,0.4v20.6C439.5,439.6,439.2,440,438.8,440z M401.4,438.5H438v-19.6
				l-4.5-6.8c-0.2-0.2-0.2-0.6,0-0.8l4.5-6.7v-20h-36.6V438.5z M428.8,430.5h-17.4c-0.4,0-0.7-0.3-0.7-0.7V416
				c0-0.4,0.3-0.7,0.7-0.7h17.4c0.4,0,0.7,0.3,0.7,0.7v13.7C429.5,430.1,429.2,430.5,428.8,430.5z M412.1,429H428v-12.2h-15.9V429z
				 M428.8,407.7h-17.4c-0.4,0-0.7-0.3-0.7-0.7v-13.7c0-0.4,0.3-0.7,0.7-0.7h17.4c0.4,0,0.7,0.3,0.7,0.7V407
				C429.5,407.4,429.2,407.7,428.8,407.7z M412.1,406.3H428V394h-15.9V406.3z"/>
		</g>
		<g>
			<path class="st1" d="M456.4,393.3V407h27.4v9h-27.4v13.7h27.4v9.5h-38.1v-55.4h38.1v9.5H456.4z"/>
			<path class="st1" d="M483.8,440h-38.1c-0.4,0-0.7-0.3-0.7-0.7v-55.4c0-0.4,0.3-0.7,0.7-0.7h38.1c0.4,0,0.7,0.3,0.7,0.7v9.5
				c0,0.4-0.3,0.7-0.7,0.7h-26.7v12.2h26.7c0.4,0,0.7,0.3,0.7,0.7v9c0,0.4-0.3,0.7-0.7,0.7h-26.7V429h26.7c0.4,0,0.7,0.3,0.7,0.7
				v9.5C484.5,439.6,484.2,440,483.8,440z M446.5,438.5h36.6v-8h-26.7c-0.4,0-0.7-0.3-0.7-0.7V416c0-0.4,0.3-0.7,0.7-0.7h26.7v-7.6
				h-26.7c-0.4,0-0.7-0.3-0.7-0.7v-13.7c0-0.4,0.3-0.7,0.7-0.7h26.7v-8h-36.6V438.5z"/>
		</g>
		<g>
			<path class="st1" d="M501.5,429.7h27.4v9.5h-38.1v-55.4h10.7V429.7z"/>
			<path class="st1" d="M528.9,440h-38.1c-0.4,0-0.7-0.3-0.7-0.7v-55.4c0-0.4,0.3-0.7,0.7-0.7h10.7c0.4,0,0.7,0.3,0.7,0.7V429h26.7
				c0.4,0,0.7,0.3,0.7,0.7v9.5C529.6,439.6,529.3,440,528.9,440z M491.5,438.5h36.6v-8h-26.7c-0.4,0-0.7-0.3-0.7-0.7v-45.2h-9.2
				V438.5z"/>
		</g>
		<g>
			<path class="st1" d="M546.5,429.7h27.4v9.5h-38.1v-55.4h10.7V429.7z"/>
			<path class="st1" d="M573.9,440h-38.1c-0.4,0-0.7-0.3-0.7-0.7v-55.4c0-0.4,0.3-0.7,0.7-0.7h10.7c0.4,0,0.7,0.3,0.7,0.7V429h26.7
				c0.4,0,0.7,0.3,0.7,0.7v9.5C574.7,439.6,574.3,440,573.9,440z M536.6,438.5h36.6v-8h-26.7c-0.4,0-0.7-0.3-0.7-0.7v-45.2h-9.2
				V438.5z"/>
		</g>
		<g>
			<path class="st1" d="M609,416h-17.4v23.2h-10.7v-55.4H619v55.4h-10V416z M591.6,393.3V407H609v-13.7H591.6z"/>
			<path class="st1" d="M619,440h-10c-0.4,0-0.7-0.3-0.7-0.7v-22.5h-15.9v22.5c0,0.4-0.3,0.7-0.7,0.7h-10.7c-0.4,0-0.7-0.3-0.7-0.7
				v-55.4c0-0.4,0.3-0.7,0.7-0.7H619c0.4,0,0.7,0.3,0.7,0.7v55.4C619.7,439.6,619.4,440,619,440z M609.7,438.5h8.5v-54h-36.6v54h9.2
				V416c0-0.4,0.3-0.7,0.7-0.7H609c0.4,0,0.7,0.3,0.7,0.7V438.5z M609,407.7h-17.4c-0.4,0-0.7-0.3-0.7-0.7v-13.7
				c0-0.4,0.3-0.7,0.7-0.7H609c0.4,0,0.7,0.3,0.7,0.7V407C609.7,407.4,609.4,407.7,609,407.7z M592.3,406.3h15.9V394h-15.9V406.3z"
				/>
		</g>
		<g>
			<path class="st1" d="M626,416v-32.2H664v9.5h-27.4V407H664v32.2H626v-9.5H654V416H626z"/>
			<path class="st1" d="M664,440H626c-0.4,0-0.7-0.3-0.7-0.7v-9.5c0-0.4,0.3-0.7,0.7-0.7h27.3v-12.2H626c-0.4,0-0.7-0.3-0.7-0.7
				v-32.2c0-0.4,0.3-0.7,0.7-0.7H664c0.4,0,0.7,0.3,0.7,0.7v9.5c0,0.4-0.3,0.7-0.7,0.7h-26.7v12.2H664c0.4,0,0.7,0.3,0.7,0.7v32.2
				C664.8,439.6,664.4,440,664,440z M626.7,438.5h36.6v-30.8h-26.7c-0.4,0-0.7-0.3-0.7-0.7v-13.7c0-0.4,0.3-0.7,0.7-0.7h26.7v-8
				h-36.6v30.8H654c0.4,0,0.7,0.3,0.7,0.7v13.7c0,0.4-0.3,0.7-0.7,0.7h-27.3V438.5z"/>
		</g>
		<g>
			<path class="st2" d="M428.8,490.2h-17.4v23.2h-10.7V458h38.1v55.4h-10V490.2z M411.3,467.5v13.7h17.4v-13.7H411.3z"/>
			<path class="st2" d="M438.8,514.2h-10c-0.4,0-0.7-0.3-0.7-0.7V491h-15.9v22.5c0,0.4-0.3,0.7-0.7,0.7h-10.7
				c-0.4,0-0.7-0.3-0.7-0.7V458c0-0.4,0.3-0.7,0.7-0.7h38.1c0.4,0,0.7,0.3,0.7,0.7v55.4C439.5,513.8,439.2,514.2,438.8,514.2z
				 M429.5,512.7h8.5v-54h-36.6v54h9.2v-22.5c0-0.4,0.3-0.7,0.7-0.7h17.4c0.4,0,0.7,0.3,0.7,0.7V512.7z M428.8,481.9h-17.4
				c-0.4,0-0.7-0.3-0.7-0.7v-13.7c0-0.4,0.3-0.7,0.7-0.7h17.4c0.4,0,0.7,0.3,0.7,0.7v13.7C429.5,481.6,429.2,481.9,428.8,481.9z
				 M412.1,480.5H428v-12.2h-15.9V480.5z"/>
		</g>
		<g>
			<path class="st2" d="M445.7,513.4V458h38.1v32.2h-13l13,23.2h-10l-13.7-23.2h-3.7v23.2H445.7z M456.4,467.5v13.7h17.4v-13.7
				H456.4z"/>
			<path class="st2" d="M483.8,514.2h-10c-0.3,0-0.5-0.1-0.6-0.4L459.7,491h-2.6v22.5c0,0.4-0.3,0.7-0.7,0.7h-10.7
				c-0.4,0-0.7-0.3-0.7-0.7V458c0-0.4,0.3-0.7,0.7-0.7h38.1c0.4,0,0.7,0.3,0.7,0.7v32.2c0,0.4-0.3,0.7-0.7,0.7H472l12.4,22.1
				c0.1,0.2,0.1,0.5,0,0.7C484.3,514,484.1,514.2,483.8,514.2z M474.2,512.7h8.3l-12.4-22.1c-0.1-0.2-0.1-0.5,0-0.7
				c0.1-0.2,0.4-0.4,0.6-0.4h12.3v-30.8h-36.6v54h9.2v-22.5c0-0.4,0.3-0.7,0.7-0.7h3.7c0.3,0,0.5,0.1,0.6,0.4L474.2,512.7z
				 M473.8,481.9h-17.4c-0.4,0-0.7-0.3-0.7-0.7v-13.7c0-0.4,0.3-0.7,0.7-0.7h17.4c0.4,0,0.7,0.3,0.7,0.7v13.7
				C474.5,481.6,474.2,481.9,473.8,481.9z M457.1,480.5h15.9v-12.2h-15.9V480.5z"/>
		</g>
		<g>
			<path class="st2" d="M505.2,467.5h-14.4V458h38.1v9.5h-13v45.9h-10.7V467.5z"/>
			<path class="st2" d="M515.8,514.2h-10.7c-0.4,0-0.7-0.3-0.7-0.7v-45.2h-13.7c-0.4,0-0.7-0.3-0.7-0.7V458c0-0.4,0.3-0.7,0.7-0.7
				h38.1c0.4,0,0.7,0.3,0.7,0.7v9.5c0,0.4-0.3,0.7-0.7,0.7h-12.3v45.2C516.6,513.8,516.2,514.2,515.8,514.2z M505.9,512.7h9.2v-45.2
				c0-0.4,0.3-0.7,0.7-0.7h12.3v-8h-36.6v8h13.7c0.4,0,0.7,0.3,0.7,0.7V512.7z"/>
		</g>
		<g>
			<path class="st2" d="M546.5,467.5v13.7h27.4v9h-27.4v13.7h27.4v9.5h-38.1V458h38.1v9.5H546.5z"/>
			<path class="st2" d="M573.9,514.2h-38.1c-0.4,0-0.7-0.3-0.7-0.7V458c0-0.4,0.3-0.7,0.7-0.7h38.1c0.4,0,0.7,0.3,0.7,0.7v9.5
				c0,0.4-0.3,0.7-0.7,0.7h-26.7v12.2h26.7c0.4,0,0.7,0.3,0.7,0.7v9c0,0.4-0.3,0.7-0.7,0.7h-26.7v12.2h26.7c0.4,0,0.7,0.3,0.7,0.7
				v9.5C574.6,513.8,574.3,514.2,573.9,514.2z M536.6,512.7h36.6v-8h-26.7c-0.4,0-0.7-0.3-0.7-0.7v-13.7c0-0.4,0.3-0.7,0.7-0.7h26.7
				v-7.6h-26.7c-0.4,0-0.7-0.3-0.7-0.7v-13.7c0-0.4,0.3-0.7,0.7-0.7h26.7v-8h-36.6V512.7z"/>
		</g>
		<g>
			<path class="st2" d="M580.9,490.2V458H619v9.5h-27.4v13.7H619v32.2h-38.1v-9.5H609v-13.7H580.9z"/>
			<path class="st2" d="M619,514.2h-38.1c-0.4,0-0.7-0.3-0.7-0.7v-9.5c0-0.4,0.3-0.7,0.7-0.7h27.3V491h-27.3c-0.4,0-0.7-0.3-0.7-0.7
				V458c0-0.4,0.3-0.7,0.7-0.7H619c0.4,0,0.7,0.3,0.7,0.7v9.5c0,0.4-0.3,0.7-0.7,0.7h-26.7v12.2H619c0.4,0,0.7,0.3,0.7,0.7v32.2
				C619.7,513.8,619.4,514.2,619,514.2z M581.6,512.7h36.6v-30.8h-26.7c-0.4,0-0.7-0.3-0.7-0.7v-13.7c0-0.4,0.3-0.7,0.7-0.7h26.7v-8
				h-36.6v30.8H609c0.4,0,0.7,0.3,0.7,0.7v13.7c0,0.4-0.3,0.7-0.7,0.7h-27.3V512.7z"/>
		</g>
	</g>
	<g>
		<g>
			<path class="st1" d="M131,554.1v26h11v4.7h-15.7v-30.7H131z"/>
		</g>
		<g>
			<path class="st1" d="M171.1,554.1v30.7h-4.7v-7.2H156l-4.5,7.2h-5.5l19.4-30.7H171.1z M158.9,573h7.5v-11.8L158.9,573z"/>
		</g>
		<g>
			<path class="st1" d="M206.5,554.1v4.7h-11v8.3h8.5v4.7h-8.5v8.4h11v4.7h-15.7v-30.7H206.5z"/>
		</g>
		<g>
			<path class="st1" d="M212,584.8v-30.7h8.1c4.2,0,7.8,1.5,10.9,4.5c3,3,4.5,6.6,4.5,10.9c0,4.2-1.5,7.8-4.5,10.8
				c-3,3-6.6,4.5-10.9,4.5H212z M216.7,580.2h3.4c2.9,0,5.5-1.1,7.6-3.2c2.1-2.1,3.1-4.6,3.1-7.5c0-3-1-5.5-3.1-7.6
				c-2.1-2.1-4.6-3.2-7.6-3.2h-3.4V580.2z"/>
		</g>
		<g>
			<path class="st1" d="M244.6,581.9c-2.1-2.1-3.2-4.7-3.2-7.7v-20.1h4.7v20.1c0,1.7,0.6,3.2,1.8,4.4c1.2,1.2,2.7,1.8,4.4,1.8
				c1.7,0,3.2-0.6,4.4-1.8c1.2-1.2,1.8-2.7,1.8-4.4v-20.1h4.7v20.1c0,3-1.1,5.6-3.2,7.7c-2.1,2.1-4.7,3.2-7.7,3.2
				C249.3,585.1,246.7,584,244.6,581.9z"/>
		</g>
		<g>
			<path class="st1" d="M284.6,580.4c1.9,0,3.6-0.4,5.2-1.3v5.1c-1.7,0.6-3.4,0.9-5.2,0.9c-4.3,0-8-1.5-11.1-4.6
				c-3.1-3.1-4.6-6.7-4.6-11.1s1.5-8,4.6-11.1c3.1-3.1,6.7-4.6,11.1-4.6c1.8,0,3.5,0.3,5.2,0.9v5.1c-1.6-0.9-3.4-1.3-5.2-1.3
				c-3,0-5.6,1.1-7.8,3.2c-2.1,2.1-3.2,4.7-3.2,7.8s1.1,5.6,3.2,7.8S281.6,580.4,284.6,580.4z"/>
		</g>
		<g>
			<path class="st1" d="M319.1,554.1v30.7h-4.7v-7.2H304l-4.5,7.2h-5.5l19.4-30.7H319.1z M306.9,573h7.5v-11.8L306.9,573z"/>
		</g>
		<g>
			<path class="st1" d="M340.5,580.4c1.9,0,3.6-0.4,5.2-1.3v5.1c-1.7,0.6-3.4,0.9-5.2,0.9c-4.3,0-8-1.5-11.1-4.6
				c-3.1-3.1-4.6-6.7-4.6-11.1s1.5-8,4.6-11.1c3.1-3.1,6.7-4.6,11.1-4.6c1.8,0,3.5,0.3,5.2,0.9v5.1c-1.6-0.9-3.4-1.3-5.2-1.3
				c-3,0-5.6,1.1-7.8,3.2c-2.1,2.1-3.2,4.7-3.2,7.8s1.1,5.6,3.2,7.8S337.4,580.4,340.5,580.4z"/>
		</g>
		<g>
			<path class="st1" d="M356.1,584.8h-4.7v-30.6h4.7V584.8z"/>
		</g>
		<g>
			<path class="st1" d="M365.9,580.5c-3.1-3.1-4.6-6.7-4.6-11.1s1.5-8,4.6-11.1c3.1-3.1,6.7-4.6,11.1-4.6c4.3,0,8,1.5,11.1,4.6
				c3.1,3.1,4.6,6.7,4.6,11.1s-1.5,8-4.6,11.1c-3.1,3.1-6.7,4.6-11.1,4.6C372.7,585.1,369,583.6,365.9,580.5z M369.3,561.7
				c-2.1,2.1-3.2,4.7-3.2,7.8s1.1,5.6,3.2,7.8s4.7,3.2,7.8,3.2c3,0,5.6-1.1,7.8-3.2s3.2-4.7,3.2-7.8s-1.1-5.6-3.2-7.8
				s-4.7-3.2-7.8-3.2C374,558.5,371.4,559.5,369.3,561.7z M379.5,547.8l-2.1,4.5h-2.8v-4.5H379.5z"/>
		</g>
		<g>
			<path class="st1" d="M420.5,554.1v30.7h-4.9l-13.1-21.9v21.9h-4.7v-30.7h4.9l13.1,21.9v-21.9H420.5z"/>
		</g>
		<g>
			<path class="st1" d="M462.5,554.1v30.7h-4.7v-7.2h-10.4l-4.5,7.2h-5.5l19.4-30.7H462.5z M450.3,573h7.5v-11.8L450.3,573z"/>
		</g>
		<g>
			<path class="st1" d="M491.2,584.8h-5.3l-6.7-12.9H474v12.9h-4.7v-30.7h11.3c2.4,0,4.5,0.9,6.3,2.6c1.7,1.7,2.6,3.8,2.6,6.3
				c0,1.8-0.5,3.4-1.5,4.9c-1,1.5-2.3,2.5-3.9,3.2L491.2,584.8z M480.7,567.2c1.2,0,2.2-0.4,3-1.2c0.8-0.8,1.2-1.8,1.2-3
				c0-1.2-0.4-2.2-1.2-3c-0.8-0.8-1.8-1.2-3-1.2H474v8.4H480.7z"/>
		</g>
		<g>
			<path class="st1" d="M512.3,554.1v4.7h-6.5v26h-4.7v-26h-6.5v-4.7H512.3z"/>
		</g>
		<g>
			<path class="st1" d="M523.3,547.8l-2.1,4.5h-2.8v-4.5H523.3z M523,554.2h-4.7v30.6h4.7V554.2z"/>
		</g>
		<g>
			<path class="st1" d="M538.1,585.1c-2-0.1-3.9-0.6-5.6-1.6c-1.9-1.1-3.3-2.6-4-4.5l4.4-1.6c0.4,0.9,1.1,1.7,2.2,2.3
				c1,0.5,2.1,0.8,3.2,0.8c1.8,0.1,3.3-0.4,4.4-1.3c1-0.8,1.5-1.7,1.6-2.7c0.1-2-2-3.5-6.2-4.7c-6.6-1.8-9.7-5-9.5-9.4
				c0.1-3.1,1.5-5.4,4-6.9c1.9-1.2,4.2-1.7,6.9-1.6c3.3,0.1,5.9,1.3,7.8,3.4l-3.4,3.2c-1.1-1.2-2.7-1.8-4.7-1.9
				c-1.4-0.1-2.6,0.1-3.6,0.5c-1.5,0.7-2.4,1.8-2.4,3.5c-0.1,1.9,2,3.5,6.2,4.7c3.8,1.1,6.4,2.6,8,4.7c1.1,1.4,1.6,3,1.5,4.7
				c-0.1,2.4-1.2,4.5-3.3,6.2c-1.9,1.6-4.3,2.3-7,2.3C538.5,585.1,538.3,585.1,538.1,585.1z"/>
		</g>
		<g>
			<path class="st1" d="M571.1,554.1v4.7h-6.5v26H560v-26h-6.5v-4.7H571.1z"/>
		</g>
		<g>
			<path class="st1" d="M581.8,584.8h-4.7v-30.6h4.7V584.8z"/>
		</g>
		<g>
			<path class="st1" d="M603.1,580.4c1.9,0,3.6-0.4,5.2-1.3v5.1c-1.7,0.6-3.4,0.9-5.2,0.9c-4.3,0-8-1.5-11.1-4.6s-4.6-6.7-4.6-11.1
				s1.5-8,4.6-11.1c3.1-3.1,6.7-4.6,11.1-4.6c1.8,0,3.5,0.3,5.2,0.9v5.1c-1.6-0.9-3.4-1.3-5.2-1.3c-3,0-5.6,1.1-7.8,3.2
				c-2.1,2.1-3.2,4.7-3.2,7.8s1.1,5.6,3.2,7.8S600,580.4,603.1,580.4z"/>
		</g>
		<g>
			<path class="st1" d="M637.5,554.1v30.7h-4.7v-7.2h-10.4l-4.5,7.2h-5.5l19.4-30.7H637.5z M625.4,573h7.5v-11.8L625.4,573z"/>
		</g>
		<g>
			<path class="st1" d="M662,584.8h-4.7v-30.7h11.3c2.4,0,4.5,0.9,6.3,2.6c1.7,1.7,2.6,3.8,2.6,6.3c0,2.4-0.9,4.5-2.6,6.3
				c-1.7,1.7-3.8,2.6-6.3,2.6H662V584.8z M662,567.2h6.7c1.2,0,2.2-0.4,3-1.2c0.8-0.8,1.2-1.8,1.2-3c0-1.2-0.4-2.2-1.2-3
				c-0.8-0.8-1.8-1.2-3-1.2H662V567.2z"/>
		</g>
		<g>
			<path class="st1" d="M696.5,554.1v30.7h-4.7v-7.2h-10.4l-4.5,7.2h-5.5l19.4-30.7H696.5z M684.3,573h7.5v-11.8L684.3,573z"/>
		</g>
		<g>
			<path class="st1" d="M725.2,584.8h-5.3l-6.7-12.9H708v12.9h-4.7v-30.7h11.3c2.4,0,4.5,0.9,6.3,2.6c1.7,1.7,2.6,3.8,2.6,6.3
				c0,1.8-0.5,3.4-1.5,4.9c-1,1.5-2.3,2.5-3.9,3.2L725.2,584.8z M714.6,567.2c1.2,0,2.2-0.4,3-1.2c0.8-0.8,1.2-1.8,1.2-3
				c0-1.2-0.4-2.2-1.2-3c-0.8-0.8-1.8-1.2-3-1.2H708v8.4H714.6z"/>
		</g>
		<g>
			<path class="st1" d="M753.2,554.1v30.7h-4.7v-7.2h-10.4l-4.5,7.2h-5.5l19.4-30.7H753.2z M741,573h7.5v-11.8L741,573z"/>
		</g>
		<g>
			<path class="st1" d="M142,606.8v4.7h-11v8.3h8.5v4.7H131v8.4h11v4.7h-15.7v-30.7H142z"/>
		</g>
		<g>
			<path class="st1" d="M156.5,606.8v26h11v4.7h-15.7v-30.7H156.5z"/>
		</g>
		<g>
			<path class="st1" d="M199.1,637.5h-4.7v-30.7h11.3c2.4,0,4.5,0.9,6.3,2.6c1.7,1.7,2.6,3.8,2.6,6.3c0,2.4-0.9,4.5-2.6,6.3
				c-1.7,1.7-3.8,2.6-6.3,2.6h-6.7V637.5z M199.1,619.9h6.7c1.2,0,2.2-0.4,3-1.2c0.8-0.8,1.2-1.8,1.2-3c0-1.2-0.4-2.2-1.2-3
				c-0.8-0.8-1.8-1.2-3-1.2h-6.7V619.9z"/>
		</g>
		<g>
			<path class="st1" d="M240.2,606.8v4.7h-11v8.3h8.5v4.7h-8.5v8.4h11v4.7h-15.7v-30.7H240.2z"/>
		</g>
		<g>
			<path class="st1" d="M271.8,637.5h-5.3l-6.7-12.9h-5.3v12.9h-4.7v-30.7h11.3c2.4,0,4.5,0.9,6.3,2.6c1.7,1.7,2.6,3.8,2.6,6.3
				c0,1.8-0.5,3.4-1.5,4.9c-1,1.5-2.3,2.5-3.9,3.2L271.8,637.5z M261.2,619.9c1.2,0,2.2-0.4,3-1.2c0.8-0.8,1.2-1.8,1.2-3
				c0-1.2-0.4-2.2-1.2-3c-0.8-0.8-1.8-1.2-3-1.2h-6.7v8.4H261.2z"/>
		</g>
		<g>
			<path class="st1" d="M284,634.6c-2.1-2.1-3.2-4.7-3.2-7.7v-20.1h4.7v20.1c0,1.7,0.6,3.2,1.8,4.4c1.2,1.2,2.7,1.8,4.4,1.8
				c1.7,0,3.2-0.6,4.4-1.8c1.2-1.2,1.8-2.7,1.8-4.4v-20.1h4.7v20.1c0,3-1.1,5.6-3.2,7.7c-2.1,2.1-4.7,3.2-7.7,3.2
				C288.7,637.8,286.1,636.7,284,634.6z M294.2,600.5L292,605h-2.8v-4.5H294.2z"/>
		</g>
		<g>
			<path class="st1" d="M352.3,606.8l-9.6,16.3v14.4h-4.7v-14.4l-9.6-16.3h5.4l6.5,11l6.5-11H352.3z"/>
		</g>
		<g>
			<path class="st1" d="M382.7,606.8v26h11v4.7h-15.7v-30.7H382.7z"/>
		</g>
		<g>
			<path class="st1" d="M427.1,606.8v30.7h-4.7v-7.2H412l-4.5,7.2H402l19.4-30.7H427.1z M415,625.7h7.5v-11.8L415,625.7z"/>
		</g>
		<g>
			<path class="st1" d="M455.1,606.8v4.7h-6.5v26H444v-26h-6.5v-4.7H455.1z"/>
		</g>
		<g>
			<path class="st1" d="M470.1,637.5h-4.7v-30.6h4.7V637.5z"/>
		</g>
		<g>
			<path class="st1" d="M503.7,606.8v30.7h-4.9l-13.1-21.9v21.9h-4.7v-30.7h4.9l13.1,21.9v-21.9H503.7z"/>
		</g>
		<g>
			<path class="st1" d="M517.7,633.2c-3.1-3.1-4.6-6.7-4.6-11.1c0-4.3,1.5-8,4.6-11.1c3.1-3.1,6.7-4.6,11.1-4.6
				c4.3,0,8,1.5,11.1,4.6c3.1,3.1,4.6,6.7,4.6,11.1c0,4.3-1.5,8-4.6,11.1s-6.7,4.6-11.1,4.6C524.4,637.8,520.7,636.3,517.7,633.2z
				 M521,614.4c-2.1,2.1-3.2,4.7-3.2,7.8s1.1,5.6,3.2,7.8c2.1,2.1,4.7,3.2,7.8,3.2s5.6-1.1,7.8-3.2s3.2-4.7,3.2-7.8
				s-1.1-5.6-3.2-7.8s-4.7-3.2-7.8-3.2S523.1,612.2,521,614.4z"/>
		</g>
		<g>
			<path class="st1" d="M573.4,606.8v30.7h-4.7v-7.2h-10.4l-4.5,7.2h-5.5l19.4-30.7H573.4z M561.2,625.7h7.5v-11.8L561.2,625.7z"/>
		</g>
		<g>
			<path class="st1" d="M616.5,606.8v30.7h-4.7V618l-8.5,19.5h-5.3l-8.4-19.4v19.4H585v-30.7h4.9l10.8,25l10.9-25H616.5z"/>
		</g>
		<g>
			<path class="st1" d="M643.5,606.8v4.7h-11v8.3h8.5v4.7h-8.5v8.4h11v4.7h-15.7v-30.7H643.5z M633.2,600.5v4.5h2.8l2.1-4.5H633.2z"
				/>
		</g>
		<g>
			<path class="st1" d="M675,637.5h-5.3l-6.7-12.9h-5.3v12.9h-4.7v-30.7h11.3c2.4,0,4.5,0.9,6.3,2.6c1.7,1.7,2.6,3.8,2.6,6.3
				c0,1.8-0.5,3.4-1.5,4.9c-1,1.5-2.3,2.5-3.9,3.2L675,637.5z M664.5,619.9c1.2,0,2.2-0.4,3-1.2c0.8-0.8,1.2-1.8,1.2-3
				c0-1.2-0.4-2.2-1.2-3c-0.8-0.8-1.8-1.2-3-1.2h-6.7v8.4H664.5z"/>
		</g>
		<g>
			<path class="st1" d="M688.5,637.5h-4.7v-30.6h4.7V637.5z"/>
		</g>
		<g>
			<path class="st1" d="M714,633.1c1.9,0,3.6-0.4,5.2-1.3v5.1c-1.7,0.6-3.4,0.9-5.2,0.9c-4.3,0-8-1.5-11.1-4.6
				c-3.1-3.1-4.6-6.7-4.6-11.1c0-4.3,1.5-8,4.6-11.1c3.1-3.1,6.7-4.6,11.1-4.6c1.8,0,3.5,0.3,5.2,0.9v5.1c-1.6-0.9-3.4-1.3-5.2-1.3
				c-3,0-5.6,1.1-7.8,3.2c-2.1,2.1-3.2,4.7-3.2,7.8s1.1,5.6,3.2,7.8S711,633.1,714,633.1z"/>
		</g>
		<g>
			<path class="st1" d="M752.8,606.8v30.7h-4.7v-7.2h-10.4l-4.5,7.2h-5.5l19.4-30.7H752.8z M740.6,625.7h7.5v-11.8L740.6,625.7z"/>
		</g>
	</g>
	<g>
		<g>
			<g>
				<path class="st3" d="M262.2,429.9h-27.7c-1.2,0-2.2,1-2.2,2.2v41.8c0,1.2,1,2.2,2.2,2.2h27.7c1.2,0,2.2-1,2.2-2.2v-41.8
					C264.5,430.8,263.5,429.9,262.2,429.9z M260,471.6h-23.3v-37.4H260V471.6z"/>
			</g>
		</g>
		<g>
			<g>
				<path class="st3" d="M178.3,429.9h-27.7c-1.2,0-2.2,1-2.2,2.2v41.8c0,1.2,1,2.2,2.2,2.2h27.7c1.2,0,2.2-1,2.2-2.2v-41.8
					C180.5,430.8,179.5,429.9,178.3,429.9z M176,471.6h-23.3v-37.4H176V471.6z"/>
			</g>
		</g>
		<g>
			<g>
				<path class="st3" d="M234.5,267.1h27.7c1.2,0,2.2-1,2.2-2.2v-41.8c0-1.2-1-2.2-2.2-2.2h-27.7c-1.2,0-2.2,1-2.2,2.2v41.8
					C232.3,266.1,233.3,267.1,234.5,267.1z M236.8,225.3H260v37.4h-23.3V225.3z"/>
			</g>
		</g>
		<g>
			<g>
				<path class="st3" d="M346.2,137.3h-27.7c-1.2,0-2.2,1-2.2,2.2v41.8c0,1.2,1,2.2,2.2,2.2h27.7c1.2,0,2.2-1,2.2-2.2v-41.8
					C348.4,138.3,347.5,137.3,346.2,137.3z M344,179.1h-23.3v-37.4H344V179.1z"/>
			</g>
		</g>
		<g>
			<g>
				<path class="st3" d="M262.2,346.3h-27.7c-1.2,0-2.2,1-2.2,2.2v41.8c0,1.2,1,2.2,2.2,2.2h27.7c1.2,0,2.2-1,2.2-2.2v-41.8
					C264.5,347.3,263.5,346.3,262.2,346.3z M260,388.1h-23.3v-37.4H260V388.1z"/>
			</g>
		</g>
		<g>
			<g>
				<path class="st3" d="M348.4,223.1c0-1.2-1-2.2-2.2-2.2h-27.7c-1.2,0-2.2,1-2.2,2.2v81.4h-23.7V216c0-0.6-0.2-1.2-0.7-1.6
					l-12.5-12.2l12.5-12.2c0.4-0.4,0.7-1,0.7-1.6V99.2h-4.4v88.3l-13.4,13.1c-0.4,0.4-0.7,1-0.7,1.6s0.2,1.2,0.7,1.6l13.4,13.1v87.5
					h-79.5v-39.6c0-1.2-1-2.2-2.2-2.2h-39.8V141.7h39.8c1.2,0,2.2-1,2.2-2.2V99.2h-4.4v38.1h-39.8c-1.2,0-2.2,1-2.2,2.2v125.4
					c0,1.2,1,2.2,2.2,2.2h39.8v37.4h-25.9c-1.2,0-2.2,1-2.2,2.2v81.4h-23.3v-81.4c0-1.2-1-2.2-2.2-2.2h-26.7v4.4h24.4v81.4
					c0,1.2,1,2.2,2.2,2.2h27.7c1.2,0,2.2-1,2.2-2.2v-81.4h23.7v88.5c0,0.6,0.2,1.2,0.7,1.6l12.5,12.2l-12.5,12.2
					c-0.4,0.4-0.7,1-0.7,1.6v89.2h4.4v-88.3l13.4-13.1c0.4-0.4,0.7-1,0.7-1.6s-0.2-1.2-0.7-1.6l-13.4-13.1v-87.5h79.5v39.6
					c0,1.2,1,2.2,2.2,2.2h39.8v120.9h-39.8c-1.2,0-2.2,1-2.2,2.2v40.3h4.4v-38.1h39.8c1.2,0,2.2-1,2.2-2.2V348.5
					c0-1.2-1-2.2-2.2-2.2h-39.8v-37.4h25.9c1.2,0,2.2-1,2.2-2.2v-81.4H344v81.4c0,1.2,1,2.2,2.2,2.2h26.7v-4.4h-24.4V223.1z"/>
			</g>
		</g>
		<g>
			<g>
				<path class="st3" d="M234.5,183.5h27.7c1.2,0,2.2-1,2.2-2.2v-41.8c0-1.2-1-2.2-2.2-2.2h-27.7c-1.2,0-2.2,1-2.2,2.2v41.8
					C232.3,182.5,233.3,183.5,234.5,183.5z M236.8,141.7H260v37.4h-23.3V141.7z"/>
			</g>
		</g>
		<g>
			<g>
				<rect x="236.8" y="434.3" class="st0" width="23.3" height="37.4"/>
			</g>
		</g>
		<g>
			<g>
				<rect x="236.8" y="141.7" class="st0" width="23.3" height="37.4"/>
			</g>
		</g>
		<g>
			<g>
				<path class="st2" d="M204.8,423.4l12.5-12.2L204.8,399c-0.4-0.4-0.7-1-0.7-1.6v-88.5h-23.7v81.4c0,1.2-1,2.2-2.2,2.2h-27.7
					c-1.2,0-2.2-1-2.2-2.2v-81.4h-24.4v200.9c0,2.4,2,4.4,4.4,4.4h75.9V425C204.2,424.4,204.4,423.8,204.8,423.4z M180.5,473.9
					c0,1.2-1,2.2-2.2,2.2h-27.7c-1.2,0-2.2-1-2.2-2.2v-41.8c0-1.2,1-2.2,2.2-2.2h27.7c1.2,0,2.2,1,2.2,2.2V473.9z"/>
			</g>
		</g>
		<g>
			<g>
				<rect x="152.8" y="434.3" class="st0" width="23.3" height="37.4"/>
			</g>
		</g>
		<g>
			<g>
				<path class="st1" d="M206.4,141.7h-39.8v120.9h39.8c1.2,0,2.2,1,2.2,2.2v39.6h79.5v-87.5l-13.4-13.1c-0.4-0.4-0.7-1-0.7-1.6
					s0.2-1.2,0.7-1.6l13.4-13.1V99.2h-79.5v40.3C208.6,140.7,207.6,141.7,206.4,141.7z M232.3,139.5c0-1.2,1-2.2,2.2-2.2h27.7
					c1.2,0,2.2,1,2.2,2.2v41.8c0,1.2-1,2.2-2.2,2.2h-27.7c-1.2,0-2.2-1-2.2-2.2V139.5z M232.3,223.1c0-1.2,1-2.2,2.2-2.2h27.7
					c1.2,0,2.2,1,2.2,2.2v41.8c0,1.2-1,2.2-2.2,2.2h-27.7c-1.2,0-2.2-1-2.2-2.2V223.1z"/>
			</g>
		</g>
		<g>
			<g>
				<rect x="236.8" y="350.7" class="st0" width="23.3" height="37.4"/>
			</g>
		</g>
		<g>
			<g>
				<path class="st0" d="M344,306.7v-81.4h-23.3v81.4c0,1.2-1,2.2-2.2,2.2h-25.9v37.4h39.8c1.2,0,2.2,1,2.2,2.2v125.4
					c0,1.2-1,2.2-2.2,2.2h-39.8v38.1h75.9c2.4,0,4.4-2,4.4-4.4V308.9h-26.7C345,308.9,344,307.9,344,306.7z"/>
			</g>
		</g>
		<g>
			<g>
				<path class="st0" d="M152.8,306.7v81.4H176v-81.4c0-1.2,1-2.2,2.2-2.2h25.9v-37.4h-39.8c-1.2,0-2.2-1-2.2-2.2V139.5
					c0-1.2,1-2.2,2.2-2.2h39.8V99.2h-75.9c-2.4,0-4.4,2-4.4,4.4v200.9h26.7C151.8,304.5,152.8,305.5,152.8,306.7z"/>
			</g>
		</g>
		<g>
			<g>
				<path class="st2" d="M368.5,99.2h-75.9v89.2c0,0.6-0.2,1.2-0.7,1.6l-12.5,12.2l12.5,12.2c0.4,0.4,0.7,1,0.7,1.6v88.5h23.7v-81.4
					c0-1.2,1-2.2,2.2-2.2h27.7c1.2,0,2.2,1,2.2,2.2v81.4h24.4V103.6C372.9,101.2,370.9,99.2,368.5,99.2z M348.4,181.3
					c0,1.2-1,2.2-2.2,2.2h-27.7c-1.2,0-2.2-1-2.2-2.2v-41.8c0-1.2,1-2.2,2.2-2.2h27.7c1.2,0,2.2,1,2.2,2.2V181.3z"/>
			</g>
		</g>
		<g>
			<g>
				<rect x="236.8" y="225.3" class="st0" width="23.3" height="37.4"/>
			</g>
		</g>
		<g>
			<g>
				<path class="st1" d="M290.4,471.6h39.8V350.7h-39.8c-1.2,0-2.2-1-2.2-2.2v-39.6h-79.5v87.5l13.4,13.1c0.4,0.4,0.7,1,0.7,1.6
					s-0.2,1.2-0.7,1.6l-13.4,13.1v88.3h79.5v-40.3C288.2,472.6,289.2,471.6,290.4,471.6z M264.5,473.9c0,1.2-1,2.2-2.2,2.2h-27.7
					c-1.2,0-2.2-1-2.2-2.2v-41.8c0-1.2,1-2.2,2.2-2.2h27.7c1.2,0,2.2,1,2.2,2.2V473.9z M264.5,390.3c0,1.2-1,2.2-2.2,2.2h-27.7
					c-1.2,0-2.2-1-2.2-2.2v-41.8c0-1.2,1-2.2,2.2-2.2h27.7c1.2,0,2.2,1,2.2,2.2V390.3z"/>
			</g>
		</g>
		<g>
			<g>
				<rect x="320.7" y="141.7" class="st0" width="23.3" height="37.4"/>
			</g>
		</g>
	</g>
</g>
</svg>
